<svg version="1.2" xmlns="http://www.w3.org/2000/svg" viewBox="0 0 3710 3710" width="3710" height="3710">
	<title>20945761-ai</title>
	<defs>
		<linearGradient id="g1" x1="2883.6" y1="6119.4" x2="-661.3" y2="1716.9" gradientUnits="userSpaceOnUse">
			<stop offset="0" stop-color="#dae3fe"/>
			<stop offset="1" stop-color="#e9effd"/>
		</linearGradient>
		<linearGradient id="g2" x1="1778.1" y1="2234.3" x2="2293.5" y2="1131.9" gradientUnits="userSpaceOnUse">
			<stop offset="0" stop-color="#09005d"/>
			<stop offset="1" stop-color="#1a0f91"/>
		</linearGradient>
		<linearGradient id="g3" x1="2317.5" y1="514.5" x2="2317.5" y2="1624" gradientUnits="userSpaceOnUse">
			<stop offset="0" stop-color="#09005d"/>
			<stop offset="1" stop-color="#1a0f91"/>
		</linearGradient>
		<linearGradient id="g4" x1="2180.3" y1="4404.8" x2="1984.2" y2="3448" gradientUnits="userSpaceOnUse">
			<stop offset="0" stop-color="#09005d"/>
			<stop offset="1" stop-color="#1a0f91"/>
		</linearGradient>
		<linearGradient id="g5" x1="2760.3" y1=".8" x2="2529.8" y2="2594.5" gradientUnits="userSpaceOnUse">
			<stop offset="0" stop-color="#4042e2"/>
			<stop offset="1" stop-color="#4f52ff"/>
		</linearGradient>
		<linearGradient id="g6" x1="2341.7" y1="76" x2="2165.1" y2="2063.1" gradientUnits="userSpaceOnUse">
			<stop offset="0" stop-color="#4042e2"/>
			<stop offset="1" stop-color="#4f52ff"/>
		</linearGradient>
		<linearGradient id="g7" x1="2271.6" y1="61.6" x2="2095.9" y2="2038.7" gradientUnits="userSpaceOnUse">
			<stop offset="0" stop-color="#4042e2"/>
			<stop offset="1" stop-color="#4f52ff"/>
		</linearGradient>
		<linearGradient id="g8" x1="2286.8" y1="68.2" x2="2110.5" y2="2052.4" gradientUnits="userSpaceOnUse">
			<stop offset="0" stop-color="#4042e2"/>
			<stop offset="1" stop-color="#4f52ff"/>
		</linearGradient>
		<linearGradient id="g9" x1="2626.8" y1="101.4" x2="2447" y2="2124.7" gradientUnits="userSpaceOnUse">
			<stop offset="0" stop-color="#4042e2"/>
			<stop offset="1" stop-color="#4f52ff"/>
		</linearGradient>
		<linearGradient id="g10" x1="2260.2" y1="63" x2="2084.1" y2="2044.1" gradientUnits="userSpaceOnUse">
			<stop offset="0" stop-color="#4042e2"/>
			<stop offset="1" stop-color="#4f52ff"/>
		</linearGradient>
		<linearGradient id="g11" x1="2281.9" y1="42.1" x2="2103.6" y2="2048.6" gradientUnits="userSpaceOnUse">
			<stop offset="0" stop-color="#4042e2"/>
			<stop offset="1" stop-color="#4f52ff"/>
		</linearGradient>
		<linearGradient id="g12" x1="2419.4" y1="84.4" x2="2242.2" y2="2078.6" gradientUnits="userSpaceOnUse">
			<stop offset="0" stop-color="#4042e2"/>
			<stop offset="1" stop-color="#4f52ff"/>
		</linearGradient>
		<linearGradient id="g13" x1="2516.2" y1="93.5" x2="2338" y2="2097.8" gradientUnits="userSpaceOnUse">
			<stop offset="0" stop-color="#4042e2"/>
			<stop offset="1" stop-color="#4f52ff"/>
		</linearGradient>
		<linearGradient id="g14" x1="2302.9" y1="4.8" x2="2119.8" y2="2065.7" gradientUnits="userSpaceOnUse">
			<stop offset="0" stop-color="#4042e2"/>
			<stop offset="1" stop-color="#4f52ff"/>
		</linearGradient>
		<linearGradient id="g15" x1="2872.6" y1="70.7" x2="2669.9" y2="2350.6" gradientUnits="userSpaceOnUse">
			<stop offset="0" stop-color="#4042e2"/>
			<stop offset="1" stop-color="#4f52ff"/>
		</linearGradient>
		<linearGradient id="g16" x1="2765.9" y1="-374.2" x2="2537.9" y2="2191.3" gradientUnits="userSpaceOnUse">
			<stop offset="0" stop-color="#4042e2"/>
			<stop offset="1" stop-color="#4f52ff"/>
		</linearGradient>
		<linearGradient id="g17" x1="3295.4" y1="145.4" x2="3109.7" y2="2234.3" gradientUnits="userSpaceOnUse">
			<stop offset="0" stop-color="#4042e2"/>
			<stop offset="1" stop-color="#4f52ff"/>
		</linearGradient>
		<linearGradient id="g18" x1="3432.2" y1="182.8" x2="3255.5" y2="2171.5" gradientUnits="userSpaceOnUse">
			<stop offset="0" stop-color="#4042e2"/>
			<stop offset="1" stop-color="#4f52ff"/>
		</linearGradient>
		<linearGradient id="g19" x1="3417.7" y1="181.5" x2="3241.8" y2="2161.2" gradientUnits="userSpaceOnUse">
			<stop offset="0" stop-color="#4042e2"/>
			<stop offset="1" stop-color="#4f52ff"/>
		</linearGradient>
		<linearGradient id="g20" x1="3314.4" y1="160.8" x2="3138" y2="2145.9" gradientUnits="userSpaceOnUse">
			<stop offset="0" stop-color="#4042e2"/>
			<stop offset="1" stop-color="#4f52ff"/>
		</linearGradient>
		<linearGradient id="g21" x1="3133.8" y1="129.3" x2="2956.3" y2="2126.1" gradientUnits="userSpaceOnUse">
			<stop offset="0" stop-color="#4042e2"/>
			<stop offset="1" stop-color="#4f52ff"/>
		</linearGradient>
		<linearGradient id="g22" x1="3233.1" y1="146.9" x2="3056.3" y2="2136.1" gradientUnits="userSpaceOnUse">
			<stop offset="0" stop-color="#4042e2"/>
			<stop offset="1" stop-color="#4f52ff"/>
		</linearGradient>
		<linearGradient id="g23" x1="3375" y1="171.7" x2="3198.8" y2="2154.7" gradientUnits="userSpaceOnUse">
			<stop offset="0" stop-color="#4042e2"/>
			<stop offset="1" stop-color="#4f52ff"/>
		</linearGradient>
		<linearGradient id="g24" x1="2899.4" y1="75.7" x2="2718.7" y2="2109.3" gradientUnits="userSpaceOnUse">
			<stop offset="0" stop-color="#4042e2"/>
			<stop offset="1" stop-color="#4f52ff"/>
		</linearGradient>
		<linearGradient id="g25" x1="3021.5" y1="109.6" x2="2843.3" y2="2115.6" gradientUnits="userSpaceOnUse">
			<stop offset="0" stop-color="#4042e2"/>
			<stop offset="1" stop-color="#4f52ff"/>
		</linearGradient>
		<linearGradient id="g26" x1="3377.1" y1="162.6" x2="3195.9" y2="2202.6" gradientUnits="userSpaceOnUse">
			<stop offset="0" stop-color="#4042e2"/>
			<stop offset="1" stop-color="#4f52ff"/>
		</linearGradient>
		<linearGradient id="g27" x1="2638.1" y1="-147.5" x2="2436.8" y2="2118.3" gradientUnits="userSpaceOnUse">
			<stop offset="0" stop-color="#4042e2"/>
			<stop offset="1" stop-color="#4f52ff"/>
		</linearGradient>
		<linearGradient id="g28" x1="1301.3" y1="4496.7" x2="1645.8" y2="3428.4" gradientUnits="userSpaceOnUse">
			<stop offset="0" stop-color="#09005d"/>
			<stop offset="1" stop-color="#1a0f91"/>
		</linearGradient>
		<linearGradient id="g29" x1="2637.2" y1="1100.2" x2="2815.5" y2="1100.2" gradientUnits="userSpaceOnUse">
			<stop offset="0" stop-color="#4042e2"/>
			<stop offset="1" stop-color="#4f52ff"/>
		</linearGradient>
		<linearGradient id="g30" x1="2709.1" y1="885.1" x2="2961.7" y2="885.1" gradientUnits="userSpaceOnUse">
			<stop offset="0" stop-color="#4042e2"/>
			<stop offset="1" stop-color="#4f52ff"/>
		</linearGradient>
		<linearGradient id="g31" x1="1015.7" y1="4411.2" x2="1360.4" y2="3342.3" gradientUnits="userSpaceOnUse">
			<stop offset="0" stop-color="#09005d"/>
			<stop offset="1" stop-color="#1a0f91"/>
		</linearGradient>
		<linearGradient id="g32" x1="2537.8" y1="929.4" x2="2734.5" y2="929.4" gradientUnits="userSpaceOnUse">
			<stop offset="0" stop-color="#4042e2"/>
			<stop offset="1" stop-color="#4f52ff"/>
		</linearGradient>
		<linearGradient id="g33" x1="2395.4" y1="784.2" x2="2777.9" y2="784.2" gradientUnits="userSpaceOnUse">
			<stop offset="0" stop-color="#4042e2"/>
			<stop offset="1" stop-color="#4f52ff"/>
		</linearGradient>
		<linearGradient id="g34" x1="1413.8" y1="68.4" x2="1102.6" y2="1279.3" gradientUnits="userSpaceOnUse">
			<stop offset="0" stop-color="#fe7062"/>
			<stop offset="1" stop-color="#ff928e"/>
		</linearGradient>
		<linearGradient id="g35" x1="2113.4" y1="-260.7" x2="1672.2" y2="272.7" gradientUnits="userSpaceOnUse">
			<stop offset="0" stop-color="#e1473d"/>
			<stop offset="1" stop-color="#e9605a"/>
		</linearGradient>
		<linearGradient id="g36" x1="2265.6" y1="-656.9" x2="1726.2" y2="-4.8" gradientUnits="userSpaceOnUse">
			<stop offset="0" stop-color="#e1473d"/>
			<stop offset="1" stop-color="#e9605a"/>
		</linearGradient>
		<linearGradient id="g37" x1="1460" y1="1748.7" x2="2113.9" y2="158.7" gradientUnits="userSpaceOnUse">
			<stop offset="0" stop-color="#09005d"/>
			<stop offset="1" stop-color="#1a0f91"/>
		</linearGradient>
		<linearGradient id="g38" x1="1611.2" y1="1812.7" x2="2341.6" y2="36.6" gradientUnits="userSpaceOnUse">
			<stop offset="0" stop-color="#09005d"/>
			<stop offset="1" stop-color="#1a0f91"/>
		</linearGradient>
		<linearGradient id="g39" x1="1726.9" y1="1867.6" x2="2456.9" y2="92.3" gradientUnits="userSpaceOnUse">
			<stop offset="0" stop-color="#09005d"/>
			<stop offset="1" stop-color="#1a0f91"/>
		</linearGradient>
		<linearGradient id="g40" x1="1840.7" y1="1961.8" x2="2647.9" y2="-1" gradientUnits="userSpaceOnUse">
			<stop offset="0" stop-color="#09005d"/>
			<stop offset="1" stop-color="#1a0f91"/>
		</linearGradient>
		<linearGradient id="g41" x1="1974.1" y1="1984.6" x2="2703.4" y2="211.2" gradientUnits="userSpaceOnUse">
			<stop offset="0" stop-color="#09005d"/>
			<stop offset="1" stop-color="#1a0f91"/>
		</linearGradient>
		<linearGradient id="g42" x1="1400.8" y1="2997.4" x2="312" y2="4181.8" gradientUnits="userSpaceOnUse">
			<stop offset="0" stop-color="#09005d"/>
			<stop offset="1" stop-color="#1a0f91"/>
		</linearGradient>
		<linearGradient id="g43" x1="1039.9" y1="3082.2" x2="1102" y2="3082.2" gradientUnits="userSpaceOnUse">
			<stop offset="0" stop-color="#febbba"/>
			<stop offset="1" stop-color="#ff928e"/>
		</linearGradient>
		<linearGradient id="g44" x1="-5319.2" y1="6277.2" x2="-4477.7" y2="5290.9" gradientUnits="userSpaceOnUse">
			<stop offset="0" stop-color="#020039"/>
			<stop offset="1" stop-color="#090056"/>
		</linearGradient>
		<linearGradient id="g45" x1="1251.8" y1="2856.5" x2="316" y2="3874.5" gradientUnits="userSpaceOnUse">
			<stop offset="0" stop-color="#09005d"/>
			<stop offset="1" stop-color="#1a0f91"/>
		</linearGradient>
		<linearGradient id="g46" x1="815.9" y1="3069.3" x2="869.6" y2="3069.3" gradientUnits="userSpaceOnUse">
			<stop offset="0" stop-color="#febbba"/>
			<stop offset="1" stop-color="#ff928e"/>
		</linearGradient>
		<linearGradient id="g47" x1="-3528.4" y1="6233.6" x2="-2882.8" y2="5476.9" gradientUnits="userSpaceOnUse">
			<stop offset="0" stop-color="#020039"/>
			<stop offset="1" stop-color="#090056"/>
		</linearGradient>
		<linearGradient id="g48" x1="1631.5" y1="1393.2" x2="1257.4" y2="2447" gradientUnits="userSpaceOnUse">
			<stop offset="0" stop-color="#4f52ff"/>
			<stop offset="1" stop-color="#4042e2"/>
		</linearGradient>
		<linearGradient id="g49" x1="1291.6" y1="1085.6" x2="1920.1" y2="2026.8" gradientUnits="userSpaceOnUse">
			<stop offset="0" stop-color="#febbba"/>
			<stop offset="1" stop-color="#ff928e"/>
		</linearGradient>
		<linearGradient id="g50" x1="1158.3" y1="982.9" x2="2130.2" y2="2438.4" gradientUnits="userSpaceOnUse">
			<stop offset="0" stop-color="#febbba"/>
			<stop offset="1" stop-color="#ff928e"/>
		</linearGradient>
		<linearGradient id="g51" x1="1750.5" y1="1538.9" x2="1476.9" y2="2309.6" gradientUnits="userSpaceOnUse">
			<stop offset="0" stop-color="#4f52ff"/>
			<stop offset="1" stop-color="#4042e2"/>
		</linearGradient>
		<linearGradient id="g52" x1="995.6" y1="1322.2" x2="710.4" y2="2125.6" gradientUnits="userSpaceOnUse">
			<stop offset="0" stop-color="#4f52ff"/>
			<stop offset="1" stop-color="#4042e2"/>
		</linearGradient>
		<linearGradient id="g53" x1="1164.4" y1="1437" x2="868.1" y2="1993.2" gradientUnits="userSpaceOnUse">
			<stop offset="0" stop-color="#febbba"/>
			<stop offset="1" stop-color="#ff928e"/>
		</linearGradient>
		<linearGradient id="g54" x1="481.7" y1="1602.1" x2="1028.6" y2="1055.2" gradientUnits="userSpaceOnUse">
			<stop offset="0" stop-color="#febbba"/>
			<stop offset="1" stop-color="#ff928e"/>
		</linearGradient>
		<linearGradient id="g55" x1="706.5" y1="1226.5" x2="1007" y2="1040.8" gradientUnits="userSpaceOnUse">
			<stop offset="0" stop-color="#09005d"/>
			<stop offset="1" stop-color="#1a0f91"/>
		</linearGradient>
		<linearGradient id="g56" x1="619.9" y1="1631.7" x2="1110.9" y2="1140.7" gradientUnits="userSpaceOnUse">
			<stop offset="0" stop-color="#febbba"/>
			<stop offset="1" stop-color="#ff928e"/>
		</linearGradient>
		<linearGradient id="g57" x1="891.5" y1="1436.2" x2="474.4" y2="1140.5" gradientUnits="userSpaceOnUse">
			<stop offset="0" stop-color="#febbba"/>
			<stop offset="1" stop-color="#ff928e"/>
		</linearGradient>
		<linearGradient id="g58" x1="882.4" y1="1600.5" x2="454.1" y2="1296.8" gradientUnits="userSpaceOnUse">
			<stop offset="0" stop-color="#febbba"/>
			<stop offset="1" stop-color="#ff928e"/>
		</linearGradient>
		<linearGradient id="g59" x1="862.4" y1="1239.1" x2="537.4" y2="2154.5" gradientUnits="userSpaceOnUse">
			<stop offset="0" stop-color="#4f52ff"/>
			<stop offset="1" stop-color="#4042e2"/>
		</linearGradient>
	</defs>
	<style>
		.s0 { fill: url(#g1) } 
		.s1 { fill: #bdd0fb } 
		.s2 { opacity: .5;fill: #ffffff } 
		.s3 { fill: url(#g2) } 
		.s4 { fill: url(#g3) } 
		.s5 { fill: #91b3fa } 
		.s6 { opacity: .7;fill: #ffffff } 
		.s7 { fill: #7d97f4 } 
		.s8 { fill: url(#g4) } 
		.s9 { fill: #ffffff } 
		.s10 { fill: url(#g5) } 
		.s11 { fill: url(#g6) } 
		.s12 { fill: url(#g7) } 
		.s13 { fill: url(#g8) } 
		.s14 { fill: url(#g9) } 
		.s15 { fill: url(#g10) } 
		.s16 { fill: url(#g11) } 
		.s17 { fill: url(#g12) } 
		.s18 { fill: url(#g13) } 
		.s19 { fill: url(#g14) } 
		.s20 { fill: url(#g15) } 
		.s21 { fill: url(#g16) } 
		.s22 { fill: url(#g17) } 
		.s23 { fill: url(#g18) } 
		.s24 { fill: url(#g19) } 
		.s25 { fill: url(#g20) } 
		.s26 { fill: url(#g21) } 
		.s27 { fill: url(#g22) } 
		.s28 { fill: url(#g23) } 
		.s29 { fill: url(#g24) } 
		.s30 { fill: url(#g25) } 
		.s31 { fill: url(#g26) } 
		.s32 { fill: url(#g27) } 
		.s33 { fill: url(#g28) } 
		.s34 { fill: url(#g29) } 
		.s35 { fill: url(#g30) } 
		.s36 { fill: url(#g31) } 
		.s37 { fill: url(#g32) } 
		.s38 { fill: url(#g33) } 
		.s39 { fill: url(#g34) } 
		.s40 { fill: url(#g35) } 
		.s41 { fill: url(#g36) } 
		.s42 { fill: url(#g37) } 
		.s43 { fill: url(#g38) } 
		.s44 { fill: url(#g39) } 
		.s45 { fill: url(#g40) } 
		.s46 { fill: url(#g41) } 
		.s47 { fill: url(#g42) } 
		.s48 { fill: url(#g43) } 
		.s49 { fill: url(#g44) } 
		.s50 { fill: url(#g45) } 
		.s51 { fill: url(#g46) } 
		.s52 { fill: url(#g47) } 
		.s53 { fill: url(#g48) } 
		.s54 { fill: url(#g49) } 
		.s55 { fill: url(#g50) } 
		.s56 { fill: url(#g51) } 
		.s57 { fill: url(#g52) } 
		.s58 { fill: url(#g53) } 
		.s59 { fill: url(#g54) } 
		.s60 { fill: url(#g55) } 
		.s61 { fill: url(#g56) } 
		.s62 { fill: url(#g57) } 
		.s63 { fill: url(#g58) } 
		.s64 { fill: url(#g59) } 
	</style>
	<g id="Background">
		<g id="&lt;Group&gt;">
			<g id="&lt;Group&gt;">
			</g>
		</g>
	</g>
	<g id="Illustration">
		<g id="&lt;Group&gt;">
			<path id="&lt;Path&gt;" class="s0" d="m2929.5 2832.3c-58 60.3-112.9 99.2-156.3 129.9-509.6 361.3-1112.7 256-1240.8 230.3-189.3-38-555.1-111.4-819.6-418.7-400.2-464.8-337.8-1197.2-27.5-1680.7 56.8-88.4 356.7-579.2 966.2-658 368.9-47.6 798.9 48.5 1110.3 306.2 653.7 541 607.1 1633.9 167.7 2091z"/>
			<g id="&lt;Group&gt;">
				<g id="&lt;Group&gt;">
					<path id="&lt;Path&gt;" class="s1" d="m1596.8 3005.9c-17.8-321.2-137-614.3-559.9-822.8 0 0-65.7 788.1 559.9 822.8z"/>
					<path id="&lt;Path&gt;" class="s2" d="m1480.7 2866.5c-0.9 0-1.8-0.4-2.4-1-239.3-233.5-388.7-576.1-390.2-579.5-0.8-1.7 0-3.7 1.8-4.5 1.7-0.7 3.7 0.1 4.4 1.8 1.5 3.4 150.5 344.8 388.7 577.3 1.4 1.3 1.4 3.5 0.1 4.8-0.7 0.7-1.6 1.1-2.4 1.1z"/>
				</g>
				<g id="&lt;Group&gt;">
					<path id="&lt;Path&gt;" class="s1" d="m2334.2 2985.9c288.9 26.6 566-40.8 808-390.4 0 0-694.2-163-808 390.4z"/>
					<path id="&lt;Path&gt;" class="s2" d="m2498.1 2891.5c-0.8 0-1.6-0.3-2.2-0.8-1.4-1.2-1.6-3.4-0.4-4.8 86.4-101.8 227.8-166.5 331.2-202.8 111.9-39.3 204.7-54.9 205.6-55 1.9-0.4 3.6 0.9 3.9 2.8 0.3 1.8-0.9 3.6-2.8 3.9-3.7 0.6-369.2 62.8-532.7 255.5-0.7 0.8-1.6 1.2-2.6 1.2z"/>
				</g>
				<path id="&lt;Path&gt;" class="s3" d="m2182.5 2377l91.8 544.8h-704.7l60.7-544.8z"/>
				<g id="&lt;Group&gt;">
					<path id="&lt;Path&gt;" class="s4" d="m581 897.3c433.6-9.7 2123.1 29.1 2505 41.3 68.9 2.2 126.4 53.1 137 121.3 50.3 323.6 36.7 1020.5 28.3 1310.4-2.1 74.5-62.5 134.2-137.1 135.3-433.8 6.4-2027.6-22.1-2483.3-33.9-102.6-2.6-184.4-86.6-184.4-189.2v-1247.6c0-74.8 59.7-135.9 134.5-137.6z"/>
					<path id="&lt;Path&gt;" class="s5" d="m611.4 944.3l2476.6 50c42.5 1 76.3 35.8 76.2 78.3l-4.1 1174.8c-0.2 59.4-48.9 107.2-108.3 106.3l-2419-29.9c-59.9-0.9-108-49.7-108-109.7v-1185.3c0-47.5 39.1-85.7 86.6-84.5z"/>
					<path id="&lt;Path&gt;" class="s6" d="m3178.3 2402.3q0 0 0 0l-2653.5-45.2c-1.9 0-3.4-1.6-3.4-3.5 0-1.9 1.7-3.4 3.5-3.3l2653.5 45.2c1.9 0 3.4 1.6 3.3 3.5 0 1.8-1.5 3.3-3.4 3.3z"/>
					<path id="&lt;Compound Path&gt;" fill-rule="evenodd" class="s6" d="m1877.7 2457.5c-17.1 0-31-13.9-31-31 0-17.1 13.9-31 31-31 17.1 0 31.1 13.9 31.1 31 0 17.1-14 31-31.1 31zm0-55.2c-13.3 0-24.2 10.9-24.2 24.2 0 13.4 10.9 24.2 24.2 24.2 13.4 0 24.2-10.8 24.2-24.2 0-13.3-10.8-24.2-24.2-24.2z"/>
				</g>
				<g id="&lt;Group&gt;">
					<path id="&lt;Path&gt;" class="s7" d="m2291.7 3001c309.9-153.8 548.9-395.8 575.6-902.2 0 0-806.5 269.3-575.6 902.2z"/>
					<path id="&lt;Path&gt;" class="s2" d="m2341.8 2886.7q-0.6 0-1.1-0.2c-1.8-0.6-2.7-2.6-2.1-4.3 74-210.9 183.9-373.5 263.1-472.8 85.8-107.5 155.1-166.1 155.8-166.6 1.5-1.2 3.6-1.1 4.8 0.4 1.2 1.4 1 3.6-0.4 4.8-2.7 2.3-276 234.7-416.9 636.4-0.5 1.4-1.8 2.3-3.2 2.3z"/>
				</g>
				<g id="&lt;Group&gt;">
					<path id="&lt;Path&gt;" class="s8" d="m2426.1 3033.2h-1031.4c-28 0-49.1-19.9-43.7-41.3l13.3-52.4c3.9-15.7 21.3-27.3 41.8-27.9l994.3-31c21.5-0.7 40.5 10.7 45.2 27.1l23.9 83.3c6.2 21.7-15 42.2-43.4 42.2z"/>
					<path id="&lt;Path&gt;" class="s9" d="m1949.9 2925.8c-1.9 0-3.4-1.5-3.4-3.3 0-1.9 1.5-3.5 3.3-3.5l42.6-0.6q0.1 0 0.1 0c1.9 0 3.4 1.5 3.4 3.3 0 1.9-1.5 3.5-3.4 3.5l-42.6 0.6q0 0 0 0z"/>
					<path id="&lt;Path&gt;" class="s9" d="m1389.2 3004.4q-0.3 0-0.5 0c-1.9-0.3-3.1-2.1-2.8-3.9l6-38.1c3.3-20.4 20.7-35.5 41.5-35.8l451.9-6.6q0 0 0 0c1.9 0 3.4 1.4 3.4 3.3 0 1.9-1.5 3.4-3.3 3.5l-451.9 6.6c-17.5 0.2-32.1 12.9-34.8 30.1l-6.1 38.1c-0.3 1.6-1.7 2.8-3.4 2.8z"/>
				</g>
			</g>
			<g id="&lt;Group&gt;">
				<g id="&lt;Group&gt;">
					<path id="&lt;Path&gt;" class="s10" d="m2668.2 508.7c0.3-8 7-14.1 15-13.7 16.2 0.8 32.6 2.3 48.7 4.4 7.8 1.1 13.3 8.3 12.3 16.1-0.8 5.8-4.9 10.3-10.1 11.9-1.9 0.5-4 0.7-6.1 0.4-15.2-2-30.8-3.4-46.2-4.1-7.9-0.4-14-7.1-13.6-15z"/>
					<path id="&lt;Path&gt;" class="s11" d="m2279.7 674c-11.1 10.7-21.9 21.9-32.1 33.5-1.9 2.1-4.2 3.5-6.6 4.3-4.6 1.3-9.8 0.4-13.7-3-5.9-5.2-6.5-14.3-1.3-20.2 10.8-12.2 22.1-24.1 33.9-35.3 5.7-5.5 14.8-5.3 20.2 0.4 5.5 5.7 5.3 14.8-0.4 20.3z"/>
					<path id="&lt;Path&gt;" class="s12" d="m2116.6 993.9c-2.1 15.2-3.5 30.8-4.3 46.2-0.3 6.2-4.5 11.3-10.2 13-1.5 0.5-3.1 0.7-4.8 0.6-7.9-0.4-14-7.1-13.6-15 0.8-16.2 2.3-32.6 4.5-48.7 1-7.9 8.3-13.3 16.1-12.3 7.9 1.1 13.4 8.3 12.3 16.2z"/>
					<path id="&lt;Path&gt;" class="s13" d="m2201.8 767.4c-8.5 12.9-16.6 26.3-23.9 39.9-1.9 3.4-5 5.8-8.5 6.8-3.5 1.1-7.5 0.8-11-1.1-6.9-3.8-9.5-12.5-5.7-19.4 7.7-14.3 16.2-28.4 25.2-41.9 4.3-6.7 13.2-8.5 19.8-4.1 6.6 4.3 8.4 13.2 4.1 19.8z"/>
					<path id="&lt;Path&gt;" class="s14" d="m2543.7 520c-1.4-7.8 3.8-15.3 11.6-16.6 16-2.9 32.3-5.1 48.4-6.6 7.9-0.7 14.9 5.1 15.6 13 0.7 6.9-3.7 13.1-10.1 15q-1.3 0.4-2.8 0.6c-15.4 1.4-30.8 3.5-46 6.2-7.8 1.4-15.3-3.8-16.7-11.6z"/>
					<path id="&lt;Path&gt;" class="s15" d="m2146.5 875.9c-5.5 14.4-10.4 29.2-14.5 44.1-1.4 4.9-5.2 8.5-9.7 9.8-2.5 0.8-5.3 0.9-8 0.1-7.7-2.2-12.1-10.1-9.9-17.7 4.4-15.6 9.5-31.3 15.2-46.4 2.8-7.4 11.1-11.2 18.5-8.4 7.4 2.8 11.2 11.1 8.4 18.5z"/>
					<path id="&lt;Path&gt;" class="s16" d="m2113.9 1115.5c1.4 15.3 3.4 30.8 6.1 46 1.3 7.2-3.1 14.2-9.9 16.2q-0.8 0.3-1.7 0.4c-7.8 1.4-15.2-3.8-16.6-11.6-2.9-16-5-32.3-6.5-48.4-0.7-7.9 5.1-14.9 13-15.6 7.9-0.7 14.9 5.1 15.6 13z"/>
					<path id="&lt;Path&gt;" class="s17" d="m2317.6 622.5c-4.6-6.4-3.2-15.4 3.2-20 13.2-9.5 26.9-18.5 40.8-26.9 6.9-4 15.6-1.8 19.7 5 4.1 6.8 1.9 15.6-4.9 19.6-13.3 7.9-26.3 16.5-38.8 25.5q-2 1.5-4.2 2.1c-5.7 1.8-12.1-0.2-15.8-5.3z"/>
					<path id="&lt;Path&gt;" class="s18" d="m2424.8 558.5c-3-7.3 0.4-15.7 7.7-18.8 14.9-6.3 30.3-12 45.8-17q0.1-0.1 0.3-0.1c7.4-2.3 15.3 1.8 17.7 9.3 2.5 7.5-1.6 15.6-9.2 18-14.6 4.8-29.3 10.3-43.5 16.2q-0.7 0.3-1.4 0.6c-6.9 2.1-14.5-1.4-17.4-8.2z"/>
					<path id="&lt;Path&gt;" class="s19" d="m2154.3 1278.2c3.1 7.3-0.4 15.7-7.7 18.7-0.4 0.2-0.8 0.6-1.3 0.8-7 2.1-14.5-1.2-17.3-8.1-6.3-14.9-12.1-30.8-17.1-46.3-2.5-7.5 1.6-15.9 9.2-18.2q0.1 0 0.2-0.1c7.5-2.2 15.5 2.1 17.9 9.5 4.7 14.8 10.2 29.5 16.1 43.7z"/>
					<path id="&lt;Path&gt;" class="s20" d="m2832.2 549.7c-2.7 0.9-5.6 0.9-8.5 0-7-2.3-14.2-4.5-21.4-6.5-7.6-2.2-12.1-10.1-9.9-17.7 2.1-7.6 10-12.1 17.7-9.9 7.5 2.1 15.1 4.4 22.5 6.8 7.5 2.4 11.6 10.5 9.2 18.1-1.6 4.6-5.2 7.9-9.6 9.2z"/>
				</g>
				<path id="&lt;Path&gt;" class="s21" d="m2615.4 1624.3c-0.5 6-4.7 10.7-10.1 12.4-1.7 0.5-3.6 0.7-5.5 0.5-15.9-1.6-32-3.8-47.7-6.7-7.8-1.5-12.9-8.9-11.5-16.7 1.5-7.8 8.9-13 16.7-11.5 14.9 2.7 30.2 4.9 45.3 6.4 7.8 0.7 13.6 7.7 12.8 15.6z"/>
				<g id="&lt;Group&gt;">
					<path id="&lt;Path&gt;" class="s22" d="m3183.9 834.4c-3.7-7-1.1-15.7 5.9-19.4 7-3.8 15.7-1.2 19.4 5.8 3.7 6.9 7.3 14 10.7 21 3.5 7.1 0.5 15.7-6.6 19.1q-1.1 0.5-2.2 0.8c-6.6 2-13.9-1-17-7.4-3.2-6.7-6.6-13.4-10.2-19.9z"/>
					<path id="&lt;Path&gt;" class="s23" d="m3274.9 1037.6c1.6 15.9 2.4 32.1 2.6 48 0.1 6.5-4.2 12.1-10.1 13.9q-1.9 0.6-4 0.6c-7.9 0.1-14.4-6.2-14.5-14.1-0.2-15.2-1.1-30.5-2.5-45.6-0.8-7.9 5-14.9 12.9-15.7 7.8-0.8 14.8 5 15.6 12.9z"/>
					<path id="&lt;Path&gt;" class="s24" d="m3273.1 1163.7c-1.9 15.8-4.6 31.8-8 47.4-1.1 5.3-5 9.3-9.9 10.8-2.2 0.7-4.6 0.8-7.1 0.3-7.7-1.7-12.7-9.3-11-17 3.1-14.9 5.7-30.1 7.6-45.1 1-7.9 8.2-13.4 16-12.4 7.9 1 13.4 8.1 12.4 16z"/>
					<path id="&lt;Path&gt;" class="s25" d="m3183.7 1379.6c6.7 4.3 8.7 13.1 4.4 19.8-8.5 13.5-17.8 26.8-27.4 39.5-1.9 2.5-4.5 4.2-7.3 5.1-4.3 1.2-9 0.5-12.8-2.3-6.3-4.8-7.6-13.8-2.8-20.1 9.2-12.1 18-24.7 26.1-37.5 4.3-6.7 13.1-8.7 19.8-4.5z"/>
					<path id="&lt;Path&gt;" class="s26" d="m3015.4 1556.6c4.2 6.7 2.2 15.6-4.5 19.8-13.5 8.6-27.5 16.6-41.7 24q-1.2 0.6-2.5 1c-6.5 1.9-13.6-0.9-16.8-7.1-3.7-7.1-0.9-15.7 6.1-19.4 13.4-6.9 26.7-14.6 39.6-22.7 6.7-4.2 15.5-2.3 19.8 4.4z"/>
					<path id="&lt;Path&gt;" class="s27" d="m3109.3 1477.5c5.6 5.6 5.6 14.6 0 20.2-11.3 11.4-23.2 22.3-35.4 32.6-1.6 1.3-3.3 2.2-5.1 2.7-5.3 1.6-11.3 0.1-15.1-4.4-5.1-6.1-4.4-15.1 1.7-20.2 11.6-9.8 22.9-20.2 33.6-30.9 5.6-5.6 14.7-5.6 20.3 0z"/>
					<path id="&lt;Path&gt;" class="s28" d="m3243.7 1286.3c-5.4 15-11.6 30-18.2 44.5-1.8 3.9-5.1 6.6-8.9 7.7-3.3 1-6.8 0.9-10.2-0.7-7.2-3.2-10.3-11.8-7-19 6.3-13.8 12.2-28 17.3-42.3 2.7-7.4 10.9-11.3 18.4-8.6 7.4 2.7 11.3 10.9 8.6 18.4z"/>
					<path id="&lt;Path&gt;" class="s29" d="m2787.4 1644.7c0.9 7-3.5 13.5-10.1 15.4q-1.1 0.4-2.4 0.6c-15.9 1.9-32 3.2-47.9 3.9-7.9 0.3-14.6-5.9-14.9-13.8-0.3-7.9 5.8-14.6 13.7-14.9 15.2-0.6 30.5-1.8 45.6-3.7 7.8-1 15 4.6 16 12.5z"/>
					<path id="&lt;Path&gt;" class="s30" d="m2906.3 1613.2c2.6 7.5-1.3 15.7-8.7 18.4-8.8 3.1-17.8 6.1-26.9 8.8q-9.4 2.8-19.1 5.4c-7.6 2-15.5-2.5-17.5-10.2-2-7.7 2.5-15.5 10.2-17.5 14.8-4 29.4-8.5 43.6-13.6 7.5-2.6 15.7 1.3 18.4 8.7z"/>
					<path id="&lt;Path&gt;" class="s31" d="m3252.9 926.4c3.4 11.2 6.5 22.7 9.2 34.1 1.8 7.5-2.6 14.9-9.8 17.1q-0.4 0.1-0.8 0.2c-7.7 1.8-15.5-3-17.3-10.7-2.6-10.8-5.5-21.8-8.7-32.5q-1.8-5.8-3.6-11.5c-2.5-7.5 1.6-15.6 9.2-18.1 7.5-2.6 15.6 1.7 18 9.2q2 6.1 3.8 12.2z"/>
				</g>
				<path id="&lt;Path&gt;" class="s32" d="m2494.2 1601.8c-1.5 4.6-5.2 8-9.5 9.3-2.7 0.8-5.7 0.8-8.6-0.2-7.4-2.4-14.9-5-22.2-7.8-7.4-2.8-11.1-11.1-8.3-18.5 2.8-7.4 11-11.1 18.4-8.3 7 2.6 14.1 5.1 21.1 7.4 7.5 2.5 11.6 10.6 9.1 18.1z"/>
				<g id="&lt;Group&gt;">
					<path id="&lt;Path&gt;" class="s33" d="m3131.1 953.5l18.7 96c0.5 2.8-0.8 5.7-3.2 7.1l-70.6 40.8c-1.5 39.1-9.5 77.2-23 112.8l49.1 65.1c1.7 2.3 1.8 5.4 0.2 7.8l-54.7 81.1c-1.6 2.4-4.6 3.5-7.3 2.7l-78.8-21.1c-28 25.9-60.2 47.5-96 63.6l-11.4 80.7c-0.4 2.8-2.5 5.1-5.3 5.7l-96 18.6c-2.8 0.6-5.7-0.7-7.1-3.2l-40.8-70.6c-39.2-1.5-77.2-9.4-112.8-23l-65.1 49.1c-2.3 1.7-5.5 1.8-7.8 0.2l-81.1-54.7c-2.4-1.6-3.5-4.5-2.8-7.3l21.1-78.5 37.2-36.9 109.3 21.2-14.1-136.6 104-77.5 177.8 6-70.2-152.2 79.6-86.3 104.1-20c24.6 27.2 45.2 58.3 60.7 92.6l80.7 11.4c2.8 0.4 5.1 2.6 5.6 5.4z"/>
					<path id="&lt;Path&gt;" class="s34" d="m2792.2 1100.2l23.3 0.8c-5.5 30.2-25 57.4-54.9 71.5q-6.6 3.1-13.5 5.1c-41.2 12.5-86-3.7-109.9-39.5l18.4-13.7c20.1 31.1 60.8 43.5 95.3 27.3 21.8-10.3 36.3-29.7 41.3-51.5z"/>
					<path id="&lt;Path&gt;" class="s35" d="m2957.2 1035.5c12.3 63.4-0.8 127.7-36.9 181.3-31.5 46.6-77.1 80.1-130.2 96.1-7.9 2.4-15.9 4.2-24.1 5.8-2.6 0.5-5.2 0.7-7.8 1.1-12.8 2.1-25.7 2.6-38.6 2.6q-0.3 0-0.5 0c-0.5 0-1 0.5-1.5 0.5-1 0-2 0.5-2.9 0.5-2.6 0-4.7-1.7-5.4-4.1q-0.3-0.8-0.2-1.7c0-3.2 2.7-5.7 5.8-5.6 16.3 0.3 32.7-1.1 48.9-4.3 80.1-15.5 142.5-71.1 170.4-142 15.5-39.3 20.4-83.5 11.7-128q-2.3-11.7-5.7-23c-14.8-49-45.2-91.3-87.5-121.1l7.9-8.5c43.7 31.3 75.2 75.3 90.6 126.2q3.6 11.9 6 24.2z"/>
				</g>
				<g id="&lt;Group&gt;">
					<path id="&lt;Path&gt;" class="s36" d="m2513.9 1253.8l-103-20-37.2 36.9 0.1-0.2c-25.9-28-47.5-60.2-63.6-96l-80.7-11.3c-2.8-0.4-5.1-2.6-5.6-5.4l-18.7-96c-0.6-2.8 0.7-5.7 3.2-7.1l70.6-40.8c1.5-39.2 9.4-77.2 23-112.8l-49.1-65.1c-1.7-2.3-1.8-5.4-0.2-7.8l54.7-81.1c1.6-2.4 4.5-3.5 7.3-2.7l78.8 21c27.9-25.9 60.2-47.5 95.9-63.5l11.4-80.7c0.4-2.9 2.6-5.1 5.4-5.7l96-18.7c2.8-0.5 5.7 0.8 7.1 3.3l40.8 70.5c39.1 1.5 77.2 9.5 112.8 23l65.1-49c2.3-1.7 5.4-1.8 7.8-0.2l81.1 54.7c2.4 1.6 3.5 4.5 2.7 7.3l-21.1 78.7c1 1.1 2 2.3 3 3.3l-104.2 20.1-79.6 86.3 68.4 148c0.8 1.9-0.6 4.1-2.7 4l-173.3-5.8-104 77.4 13.5 130.2c0.3 3.2-2.5 5.8-5.7 5.2z"/>
					<path id="&lt;Path&gt;" class="s37" d="m2554.5 1082.5c-2.7-4.1-5.2-8.3-7.3-12.9-23.1-49-1.9-107.7 47.1-130.8 23.8-11.2 50.5-12.4 75.2-3.5 24.7 8.9 44.5 26.9 55.7 50.7 9 19.2 11.2 39.9 7.6 59.4l-23.2-0.9c3.6-15.8 2.2-32.9-5.2-48.7-8.6-18.3-23.7-32.1-42.7-38.9-15.4-5.6-31.8-6-47.2-1.3q-5.3 1.6-10.4 4c-37.6 17.7-53.9 62.7-36.2 100.3 1.5 3.1 3.2 6 5 8.8z"/>
					<path id="&lt;Path&gt;" class="s38" d="m2777.9 829.5l-7.8 8.5c-1.4-1-2.7-2-4.1-2.9-51-34.4-112.4-46.9-172.8-35.2-124.7 24.3-206.3 145.4-182.1 270.1q2.2 11.5 5.6 22.7c9.7 32.2 26.4 62 49 87.1q0.9 1 1.2 2.2c0.6 2 0.1 4.4-1.6 5.9-2.4 2.1-6 1.9-8.1-0.4-23.7-26.4-41.2-57.6-51.5-91.5q-3.5-11.7-5.9-23.9c-25.4-130.8 60.4-258 191.2-283.4 63.4-12.4 127.8 0.7 181.4 36.9 1.9 1.2 3.7 2.6 5.5 3.9z"/>
				</g>
			</g>
			<g id="&lt;Group&gt;">
				<g id="&lt;Group&gt;">
					<path id="&lt;Path&gt;" class="s9" d="m877.9 538.1c155.8 0 282 126.2 282 282 0 155.7-126.2 282-282 282-155.7 0-282-126.3-282-282 0-155.8 126.3-282 282-282z"/>
					<path id="&lt;Path&gt;" class="s39" d="m877.9 547.4c150.6 0 272.6 122.1 272.6 272.7 0 150.5-122 272.6-272.6 272.6-150.6 0-272.6-122.1-272.6-272.6 0-150.6 122-272.7 272.6-272.7z"/>
					<path id="&lt;Path&gt;" class="s6" d="m1100.1 708.1c-42.6-84.4-127.7-136.8-222.2-136.8-15.1 0-30.2 1.3-44.9 4-1.5 0.3-3-0.7-3.3-2.3-0.3-1.6 0.7-3.1 2.3-3.3 15-2.8 30.5-4.2 45.9-4.2 96.7 0 183.8 53.7 227.4 140 0.7 1.4 0.1 3.2-1.3 3.9q-0.6 0.3-1.3 0.3c-1 0-2.1-0.6-2.6-1.6z"/>
					<path id="&lt;Path&gt;" class="s9" d="m872 595.3c127.4 0 230.7 103.3 230.7 230.7 0 127.4-103.3 230.8-230.7 230.8-127.5 0-230.8-103.4-230.8-230.8 0-127.4 103.3-230.7 230.8-230.7z"/>
				</g>
				<g id="&lt;Group&gt;">
					<path id="&lt;Path&gt;" class="s40" d="m886.3 870.9l-26.2-0.6c-7.2-0.2-13.3-6.4-13.6-13.8l-9.6-183.9c-0.2-3.8 1.2-7 3.8-9.5 2.6-2.6 6.2-3.4 9.9-3.2l45 3.2c3.7 0.2 7.2 1.5 9.7 4.3 2.6 2.9 3.9 6.4 3.7 10.1l-9.3 180.6c-0.4 7.2-6.3 12.9-13.4 12.8z"/>
					<path id="&lt;Path&gt;" class="s41" d="m845.9 915.8q9.8-9.3 27.5-9 18.3 0.3 27.7 9.6 9.5 9.2 9.5 27.1 0 17.2-9.7 26.7-9.6 9.5-27.5 9.5-17.4 0-27.3-9.9-10-9.8-10-26.9 0-17.7 9.8-27.1z"/>
				</g>
			</g>
			<g id="&lt;Group&gt;">
				<g id="&lt;Group&gt;">
				</g>
				<g id="&lt;Group&gt;">
					<g id="&lt;Group&gt;">
					</g>
					<g id="&lt;Group&gt;">
						<path id="&lt;Compound Path&gt;" class="s42" d="m1671.6 1833.6l-86 2.7v-153.6l86-1.9v26.5l-54.2 1.4v33.6l50.5-1.3v26.5l-50.5 1.4v39.6l54.2-1.7z"/>
						<path id="&lt;Compound Path&gt;" fill-rule="evenodd" class="s43" d="m1739 1773.1v58.3l-31.3 1v-152.4l43-1q29.9-0.6 44.2 10.3 14.3 10.9 14.3 33.8 0 13.4-7.1 24-7.1 10.6-20.1 16.8c22 33.5 36.3 55 42.9 64.8l-34.3 1.1-35-57.2zm0-26.2l10.1-0.3q14.7-0.4 21.8-5.7 7-5.2 7-16.1 0-10.8-7.2-15.2-7.2-4.4-22.2-4.1l-9.5 0.3z"/>
						<path id="&lt;Compound Path&gt;" fill-rule="evenodd" class="s44" d="m1879 1769.1v57.8l-30.7 1v-151l42.2-1q29.4-0.6 43.4 10.2 14.1 10.8 14.1 33.5 0 13.2-7 23.7-7 10.6-19.7 16.8c21.6 33.1 35.6 54.5 42.1 64.1l-33.7 1.1-34.4-56.7zm0-26l9.9-0.2q14.5-0.4 21.4-5.6 6.9-5.3 6.9-16.1 0-10.7-7-15-7.1-4.4-21.9-4l-9.3 0.2z"/>
						<path id="&lt;Compound Path&gt;" fill-rule="evenodd" class="s45" d="m2114.8 1744.9q0 36.9-17.3 57.2-17.3 20.4-49.8 21.5-32.5 1-50.1-18.4-17.5-19.4-17.5-56.8 0-37.4 17.6-57.5 17.6-20.1 50.2-20.9 32.6-0.7 49.8 18.7 17.1 19.3 17.1 56.2zm-103.1 2.8q0.1 25.1 9.1 37.5 9 12.4 26.9 11.8 35.9-1 35.9-51.2 0-50.3-35.7-49.4-17.9 0.4-27 13.3-9.1 13-9.2 38z"/>
						<path id="&lt;Compound Path&gt;" fill-rule="evenodd" class="s46" d="m2178.3 1760.6v56.7l-29.6 1v-148.2l40.6-0.9q28.3-0.6 41.8 10 13.5 10.6 13.5 32.9 0 13-6.7 23.3-6.7 10.3-19 16.4c20.8 32.5 34.3 53.5 40.6 62.9l-32.5 1.1-33.1-55.6zm0-25.5l9.6-0.3q13.9-0.4 20.5-5.5 6.7-5.1 6.7-15.7 0-10.5-6.8-14.8-6.8-4.2-21-3.9l-9 0.2z"/>
					</g>
				</g>
			</g>
			<g id="&lt;Group&gt;">
				<path id="&lt;Path&gt;" class="s47" d="m1079.5 3119.4l191.1 87.8c4.7 2.2 8.5 6.1 10.4 11 2.3 5.8-1.8 12.1-8 12.4-41.5 1.9-157.2-2.5-211.2-4.8-16-0.6-28.2-14.4-26.8-30.3 3.6-40.6 10.8-81.6 10.8-81.6z"/>
				<path id="&lt;Path&gt;" class="s48" d="m1088.1 3082.2l13.9 54.7c-22.9 17.6-56.3 2-56.3 2l-5.8-49.1z"/>
				<path id="&lt;Path&gt;" class="s49" d="m1044.2 2167.5c-2.5 12.8-13.5 639.3 53.5 920.1 1.1 4.6-1.2 9.3-5.6 11.1-10.2 4.2-30.4 10.2-54.5 11.1-7.5 0.2-14.2-4.7-16.3-11.8-19.1-65.2-110.9-391.6-122.8-703.3-13.4-348.4 0-11.9 0-11.9l7.8-215.3z"/>
				<path id="&lt;Path&gt;" class="s50" d="m869.1 3137.7c23.4 25.6 31 58.6 33.5 78.7 1.2 10-6.7 18.9-16.9 18.9-22 0.2-49.5-2.1-67.3-3.8-10.1-1-17.1-10.5-15.1-20.5 11.2-55 22.7-75.7 22.7-75.7z"/>
				<path id="&lt;Path&gt;" class="s51" d="m863.1 3069.3l6.5 79.9c-26.6 7.2-40.1-2.8-40.1-2.8l-13.6-74.2z"/>
				<path id="&lt;Path&gt;" class="s52" d="m1049.8 2152l-7.6 113.9-99.1 70.4c-8 5.7-13.7 13.9-16.3 23.4-51.1 186.7-45.6 659.3-48.7 736.3-0.2 5.8-4.1 10.9-9.7 12.5-16.3 4.7-32.8 3.4-42.9 1.7-5.9-1-10.6-5.5-12-11.3-22.5-95.2-89.1-581.6-34.3-912.2z"/>
				<g id="&lt;Group&gt;">
					<g id="&lt;Group&gt;">
						<g id="&lt;Group&gt;">
							<g id="&lt;Group&gt;">
								<g id="&lt;Group&gt;">
									<path id="&lt;Path&gt;" class="s53" d="m1362.4 1725.5c26.9 132.8-1.3 238.7-61.5 264.6-30.4 13.1-63.2 3.1-85.2-3.6-108.2-33.1-156-141.9-167-168.8q-37.6-135.1-75.3-270.1c53.8-5 122.4-1.5 172.6 41.2 79.5 67.5 75.1 201 96.9 199.9 6.8-0.4 15.6-14 23.9-73.2 65.5 0.3 83 5.3 95.6 10z"/>
									<path id="&lt;Path&gt;" class="s54" d="m1307.2 1539.3c0 0 46.6 116.2 55.2 186.2-16.4-2.7-33.9-5.1-52.4-7-15-1.5-29.4-2.4-43.2-3 8.3-48.4 6.8-105.8-9.2-174.6l-9.9-56.3c28 40.5 31.4 14.1 59.5 54.7z"/>
								</g>
								<path id="&lt;Path&gt;" class="s55" d="m1381 1366.5c-13 63.4-36.3 122.7-74 176.6l-41.1 14.1c-14-12.9-31.3-34.2-35.4-63.4-7.2-51.1-11-85.6-11-85.6 0 0 26.3 3 27.5 27.7 1.2 24.8 14.1 27.4 14.1 27.4l71-84.1c7.3-8.7 18.1-13.5 29.3-13.2z"/>
							</g>
							<path id="&lt;Path&gt;" class="s56" d="m692.3 1594.9c4.7-1.3 37-34.7 41.9-35.6 79.7-15.2 278.7-68.8 411.8 29.5 0.3 2.8 0.6 5.1 0.7 6.9 1.3 1.8 3.1 4.7 5.5 9.4 12.6 24.4 27.6 48.1 44.9 70.2-3.8 3.8-6.9 8.2-9.2 13.2-32 68.5-153.3 342.2-132 509.6 1.1 8.6-4.8 16.6-13.4 17.8-47.1 6.5-187.3 22.4-259.8-7.5-4.2-1.8-6.9-5.9-6.8-10.5 0.5-33.5-1-179.3-54.4-355q-3-9.8-4.9-19.9c-0.7 1.3-1.3 2.7-1.9 4z"/>
							<path id="&lt;Path&gt;" class="s57" d="m717.7 1828.5c-72.4-10.7-129.9-39.4-168-81.4l-18.2-159.1c102.7 51.9 133.8-33 282.4-43.9z"/>
						</g>
						<g id="&lt;Group&gt;">
							<path id="&lt;Path&gt;" class="s58" d="m997.6 1418.1c-2.6 52-4.4 102.8 6.1 136.4-48.9 49.1-122-1.6-127.5-3.6 3.2-48.2 13.8-99.9 39.3-150.7z"/>
							<g id="&lt;Group&gt;">
								<path id="&lt;Path&gt;" class="s59" d="m1048.1 1266.8c1.4 2.2 37.9 174.5 37.9 174.5l-98.8 18.8-58.9-158.2c0 0 96.3-73.1 119.8-35.1z"/>
								<path id="&lt;Path&gt;" class="s60" d="m966 1316c-2.6 3.6-3.4 8.2-2.2 12.5l24.1 84.5q0.6 1.9 1.6 3.6c3.9 6.2 17.9 25.1 36.8 9.6 16.1-13.2 31.1-25.1 44.5-28 7.8-1.8 15.5 3.4 17.1 11.2 3.4 16.2 9.5 49 10.9 78.9 0.3 7.5-5.2 13.9-12.7 14.8-19.6 2.5-58.1 6-90.3 2-5.3-0.7-9.8-4.2-11.7-9.1-8.5-21.9-32.4-83.2-41.8-99.5-8.8-15.1-32-16.5-42.7-16.3-4.1 0.1-8-1.5-10.8-4.5-8.4-8.7-22-28.6 1-49.9 5.7-5.3 5.9-14.3 0.7-20.1-9.2-10.4-17.7-27.6 0-47 17.9-19.6 39.4-16 53.3-10.4 6.1 2.5 13.4 0.9 17.5-4.4 1.7-2.3 4.5-4 8.7-3.7 7.9 0.5 14.7-5.1 15.2-13 0.9-13.6 7.3-29.8 31-35.6 43.3-10.6 67.3 32.1 68 62.9 0.8 30.8-46.9 39.6-74.3 35.9-20.2-2.8-36.6 15.6-43.9 25.6z"/>
								<path id="&lt;Path&gt;" class="s61" d="m901.5 1414.2c-20.2-31.2 2.4-48.1 24.4-44.1 22 3.9 31.2 58.5 31.2 58.5 0 0-30.5 24.4-55.6-14.4z"/>
							</g>
						</g>
						<g id="&lt;Group&gt;">
							<path id="&lt;Path&gt;" class="s62" d="m920.8 1232.3c3.9-0.1 8 0.2 12.6 1.2 10.5 2.2 24.4 7.6 20.8 17.6-5.5 15.1-33.7 1-48.8 25.4-13.2 21.4-2.4 44.7-6.4 67.8-2 11.2-9.2 27.9-19.3 34.4-4.4 3-39.9 8.6-41.8 2.3 0 0-9.9-32-9.9-32-8.8-28.7 25.2-76.7 42.8-96 13.5-15 31.9-19.9 50-20.7z"/>
							<g id="&lt;Group&gt;">
								<path id="&lt;Path&gt;" class="s63" d="m887.2 1347.8l-33.9 28.2c-65 27.7-112.2 60.2-146.5 95.5-12.4-23.3-32.5-50.3-64.4-71.3 65.5-32.3 114.3-45.7 114.3-45.7 132.3-53.2 130.5-6.7 130.5-6.7z"/>
								<path id="&lt;Path&gt;" class="s64" d="m706.8 1471.5c-106.9 110.1-75.7 54.2-76.5 148-0.3 35-30.7 168.6-30.7 168.6-326.9-141.3-54.1-334.1 42.8-387.9 31.9 21 52 48 64.4 71.3z"/>
							</g>
						</g>
					</g>
				</g>
			</g>
		</g>
	</g>
</svg>