<svg version="1.2" xmlns="http://www.w3.org/2000/svg" viewBox="0 0 3000 2000" width="3000" height="2000">
	<title>Decrease_3-ai</title>
	<defs>
		<clipPath clipPathUnits="userSpaceOnUse" id="cp1">
			<path d="m1926.16 491.29h726.79v380.04c0 23.14-18.75 41.89-41.89 41.89h-643.01c-23.13 0-41.89-18.75-41.89-41.89z"/>
		</clipPath>
	</defs>
	<style>
		.s0 { opacity: .3;fill: #ebebff } 
		.s1 { opacity: .6;fill: #9192ff } 
		.s2 { fill: #3335cf } 
		.s3 { fill: #ffffff } 
		.s4 { fill: #ebebff } 
		.s5 { fill: #9192ff } 
		.s6 { fill: #1b1b43 } 
		.s7 { fill: #ffa121 } 
		.s8 { opacity: .6;fill: #d1d1ff } 
		.s9 { fill: #fff2e0 } 
		.s10 { fill: #d1d1ff } 
		.s11 { opacity: .6;fill: #ffffff } 
		.s12 { fill: #c5c5ff } 
		.s13 { fill: #ffbc96 } 
		.s14 { fill: #d28572 } 
		.s15 { opacity: .2;fill: #fe5b52 } 
	</style>
	<g id="BACKGROUND">
	</g>
	<g id="OBJECTS">
		<g id="&lt;Group&gt;">
			<g id="&lt;Group&gt;">
				<path id="&lt;Path&gt;" class="s0" d="m1003.4 1713.9c-47.7-45.5-84.7-101.2-104-164.4-42.2-137.9 16.5-306.9 146.8-368.8 117.4-55.7 255.9-19 385.2-32.4 109.1-11.3 210.8-58.5 316.3-88.4 105.6-29.8 225.6-40.5 319.3 16.5 107.8 65.6 150.8 210 120.8 332.5-30.1 122.5-121.2 223-227.4 291.2q-12.5 8-25.3 15.6z"/>
				<path id="&lt;Compound Path&gt;" fill-rule="evenodd" class="s1" d="m1124.3 1715.1l-0.3-0.2c-8.4-5.3-16.6-10.8-24.5-16.3-115.8-80-194-188.1-220.5-304.4-31.1-136.7 18.4-283.2 117.7-348.3 77.3-50.7 181.7-56.6 310.2-17.4 33.4 10.1 66.9 22.4 99.3 34.3 66.6 24.5 135.5 49.7 206.4 57.6 43.8 4.9 89.5 3.3 133.8 1.7 81.3-2.8 165.4-5.7 239.3 32.1 121.6 62.1 185.5 235.4 142.7 386.2-18.6 65.1-56.2 116.6-126 172.2l-0.4 0.3h-0.6zm28.8-709c-59.8 0-111.5 14.2-154.7 42.5-98.2 64.4-147.1 209.5-116.3 344.9 26.3 115.5 104.1 222.9 219.2 302.5 7.7 5.4 15.8 10.7 24 15.9l875.6-2.2c68.9-55 106.1-106 124.4-170.2 42.5-149.4-20.8-321-141.1-382.5-73.2-37.4-156.8-34.5-237.7-31.7-44.4 1.6-90.2 3.2-134.3-1.7-71.2-8-140.3-33.3-207.1-57.8-32.4-11.9-65.9-24.2-99.2-34.3-55.6-16.9-106.6-25.4-152.8-25.4z"/>
			</g>
			<g id="&lt;Group&gt;">
				<g id="&lt;Group&gt;">
					<path id="&lt;Compound Path&gt;" fill-rule="evenodd" class="s2" d="m2329 1646.9c-31.3 0-56.7-23.8-56.7-53 0-29.2 25.4-53 56.7-53 31.3 0 56.8 23.8 56.8 53 0 29.2-25.5 53-56.8 53zm0-86.3c-20.4 0-37 15-37 33.3 0 18.3 16.6 33.3 37 33.3 20.4 0 37-15 37-33.3 0-18.3-16.6-33.3-37-33.3z"/>
				</g>
				<g id="&lt;Group&gt;">
					<path id="&lt;Path&gt;" class="s3" d="m2309 1712.6h-124.2l-21.2-215.6h166.7z"/>
					<path id="&lt;Compound Path&gt;" fill-rule="evenodd" class="s2" d="m2311 1714.7h-128.1l-21.7-219.8h171.4zm-124.2-4.3h120.4l20.8-211.3h-162z"/>
				</g>
				<path id="&lt;Path&gt;" class="s4" d="m2287.4 1694.7h-81l-13.8-135.2h108.7z"/>
			</g>
			<g id="&lt;Group&gt;">
				<path id="&lt;Compound Path&gt;" class="s5" d="m740.2 855.3h-23v-4.3h23c5.2 0 10.3-0.9 15.2-2.7l1.4 4c-5.3 2-10.9 3-16.6 3zm-46.1 0h-23v-4.3h23zm-46 0h-23v-4.2h23zm-46.1 0h-23v-4.3h23zm-46 0h-23.1v-4.2h23.1zm-46.1 0h-23v-4.3h23zm-46 0h-23.1v-4.2h23.1zm-46.1 0h-23v-4.3h23zm-46 0h-23.1v-4.2h23.1zm-46.1 0h-23v-4.3h23zm-46.4-3.6c-7.4-3.1-14-8.1-19-14.4l3.3-2.7c4.6 5.8 10.6 10.3 17.3 13.2zm497.1-13l-3.2-2.8c4.8-5.6 8.1-12.3 9.6-19.5l4.1 0.9c-1.6 7.8-5.2 15.2-10.5 21.4zm-525.7-23.2c-0.4-2.6-0.7-5.2-0.7-7.8v-15.6h4.3v15.6q0 3.5 0.6 7.1zm537.2-21.6h-4.3v-23h4.3zm-533.6-24.8h-4.3v-23h4.3zm533.6-21.3h-4.3v-23h4.3zm-533.6-24.8h-4.3v-23h4.3zm533.6-21.3h-4.3v-23.1h4.3zm-533.6-24.7h-4.3v-23.1h4.3zm533.6-21.2h-4.3v-23.1h4.3zm-533.6-24.7h-4.3v-23.1h4.3zm533.6-21.2h-4.3v-23.1h4.3zm-533.6-24.7h-4.3v-23.1h4.3zm533.6-21.2h-4.3v-23.1h4.3zm-533.6-24.7h-4.3v-23.1h4.3zm533.6-21.2h-4.3v-23.1h4.3zm-533.6-24.8h-4.3v-5.6c0-6.1 1.2-12.1 3.4-17.8l4 1.6c-2.1 5.2-3.1 10.6-3.1 16.2zm526.8-20.3c-2.4-6.8-6.7-13.1-12.2-17.9l2.8-3.2c6.1 5.3 10.7 12.2 13.4 19.7zm-510.8-19l-2.7-3.3c6.2-5.1 13.7-8.6 21.6-10l0.8 4.2c-7.2 1.3-14 4.4-19.7 9.1zm479.3-8.8c-3.1-0.7-6.2-1-9.4-1h-13.1v-4.2h13.1c3.5 0 6.9 0.3 10.3 1.1zm-45.5-1h-23.1v-4.3h23.1zm-46.1 0h-23v-4.2h23zm-46.1 0h-23v-4.3h23zm-46 0h-23v-4.2h23zm-46.1 0h-23v-4.3h23zm-46 0h-23v-4.2h23zm-46.1 0h-23v-4.3h23zm-46 0h-23v-4.2h23zm-46.1 0h-23v-4.3h23z"/>
				<path id="&lt;Path&gt;" class="s5" d="m879.4 960.9h-493c-28 0-50.8-22.7-50.8-50.7v-357.1c0-28.1 22.8-50.8 50.8-50.8h493c28 0 50.7 22.7 50.7 50.8v357.1c0 28-22.7 50.7-50.7 50.7z"/>
				<g id="&lt;Group&gt;">
					<path id="&lt;Path&gt;" class="s3" d="m446 916.7h-58v-278.2h58z"/>
					<path id="&lt;Path&gt;" class="s3" d="m554 916.7h-58v-229.3h58z"/>
					<path id="&lt;Path&gt;" class="s3" d="m661.9 916.7h-58v-186.4h58z"/>
					<path id="&lt;Path&gt;" class="s3" d="m769.8 916.7h-58v-156.2h58z"/>
					<path id="&lt;Path&gt;" class="s3" d="m877.8 916.7h-58.1v-67.1h58.1z"/>
				</g>
				<path id="&lt;Path&gt;" class="s3" d="m776.8 590.5h-287.8v-25h287.8z"/>
			</g>
			<g id="&lt;Group&gt;">
				<path id="&lt;Path&gt;" class="s6" d="m1445 420.4c-26.9 12.4-60.7 29.4-61 63.6-0.4 39.5 43.7 37.7 70.6 29.5 25.8-8 55.9-19.8 75.9-38.6 7.1-6.8 14.5-17.5 8.3-27.3-5.1-8.3-16.1-9.6-24.7-8-12.3 2.4-25.1 9.4-36 15.4-13.9 7.7-27 18.2-32 34-5 15.6 1.1 30.6 14.8 39.2 13 8.2 28.7 8.7 43.6 7.6 10-0.8 46.8-2.8 35.5-22.2-10.1-17.3-33.4-2.7-45.2 4.3-12.3 7.4-25.3 16.2-30.5 30.2-6.5 17.2 2.1 32.9 19.6 37.4 10 2.6 21.1 2.2 31.4 1.1 7-0.8 15.9-2.1 21.2-7.4 7.5-7.5 1.5-17.5-7-20.3-15.8-5.1-29.1 13.2-35.8 24.8-14.1 24.2-16.9 53.4-8.7 80 0.8 2.7-3.3 3.8-4.1 1.2-6.3-20.5-6.4-42.4 0.1-62.8 5.5-17.3 16.8-39.7 35-46.5 11.7-4.5 30.1 2.3 28.2 17.3-1.9 14.9-21.1 17.3-32.9 18.2-14.2 1.1-31.2 1.1-42.9-8.3-12-9.6-13-26-6.8-39.2 8.1-17.4 27.5-28.3 43.9-36.6 12.2-6.2 29.7-9.6 38.2 4.4 7.1 11.8-3 21.7-13.9 25-17.9 5.5-42.1 6.7-60 0.6-14.3-4.9-27.2-16-29.5-31.6-2.5-17 7.4-33.3 20.2-43.8 14-11.5 34.5-22.4 52.4-26.1 12.4-2.5 28.5 1.6 31.9 15.4 4 16.2-12.5 29.2-24.2 36.7-18.1 11.6-37.8 20.9-58.1 27.8-27.5 9.3-74.6 16.3-82-22.6-7.6-39.8 32.3-62.2 62.3-76 2.5-1.2 4.7 2.5 2.2 3.6z"/>
				<path id="&lt;Path&gt;" class="s7" d="m1134.3 617.1c6.9 14.4 13.2 29.1 19.2 43.9l9 22.2 8.5 22.3-12.7-3.7 21.4-16.8c7.1-5.6 14.4-11 21.6-16.5l8.8-6.7 4 10.1c2.9 7.3 5.6 14.6 8.4 21.9 2.8 7.4 5.3 14.8 8 22.1 2.6 7.4 5.2 14.8 7.6 22.3q3.7 11.1 6.9 22.5l-6.2 2.5q-5.6-10.4-10.8-20.9c-3.5-7-6.8-14.1-10.2-21.2-3.2-7.1-6.6-14.2-9.7-21.4-3.1-7.1-6.4-14.3-9.4-21.5l12.8 3.5c-7.2 5.5-14.3 11.2-21.5 16.7l-21.7 16.4-9.2 7-3.6-10.7-7.5-22.8-7.1-22.8c-4.6-15.3-9-30.6-12.8-46.2z"/>
				<path id="&lt;Path&gt;" class="s7" d="m1739.9 663.9c-3.8 15.6-8.3 30.9-12.9 46.2l-7.1 22.8-7.5 22.8-3.5 10.7-9.2-7-21.7-16.4c-7.3-5.5-14.4-11.2-21.5-16.7l12.7-3.5c-3 7.2-6.2 14.4-9.3 21.5-3.2 7.2-6.5 14.3-9.7 21.4-3.4 7.1-6.7 14.2-10.3 21.2q-5.1 10.5-10.8 20.9l-6.1-2.5q3.2-11.4 6.9-22.5c2.4-7.5 5-14.9 7.5-22.3 2.7-7.3 5.3-14.7 8.1-22.1 2.8-7.3 5.5-14.6 8.4-21.9l4-10.1 8.7 6.7c7.2 5.5 14.5 10.9 21.7 16.5l21.4 16.8-12.8 3.7 8.6-22.3 8.9-22.2c6.1-14.8 12.4-29.5 19.2-43.9z"/>
			</g>
			<g id="&lt;Group&gt;">
				<g id="&lt;Group&gt;">
					<g id="&lt;Clip Group&gt;" clip-path="url(#cp1)">
						<path id="&lt;Path&gt;" class="s3" d="m1926.2 491.3h726.8v380c0 23.2-18.8 41.9-41.9 41.9h-643c-23.2 0-41.9-18.7-41.9-41.9z"/>
						<g id="&lt;Group&gt;">
							<path id="&lt;Path&gt;" class="s8" d="m1857 637.6c3.4-30.9 31-57.3 62-59.5 31.1-2.2 62 20.1 69.8 50.3 14.7-4.6 32 0.3 42.1 12 10.2 11.7 12.6 29.5 6 43.4 30.9 4.9 51.2 43.2 38 71.6 21-5.6 44.4-1.5 62.2 10.9 17.8 12.5 29.7 32.9 31.7 54.6 8.4-29.2 38.2-50.7 68.5-49.4 30.3 1.3 58.2 25.1 64.1 54.9 92.2-140.1 334-99.6 402.9 55.8l-99.9 254.1-593.2 13.5-267.6-304.1z"/>
							<path id="&lt;Path&gt;" class="s3" d="m1845.8 716.3c21.7-16.2 45.2-31 71.6-37.4 26.3-6.4 56-3.4 77.3 13.3 21.4 16.8 31.3 48.7 18.4 72.5 18.3-1.6 37.2 8.3 46.4 24.3 9.1 16 7.9 37.3-2.9 52.2 18.6-9.3 41.3-9.9 60.4-1.6 19 8.3 34 25.4 39.8 45.3 26.6-22.2 71.5-16.7 92 11.2 44-41.9 111.3-65 167.1-41 32.4 13.9 57.2 41.8 74 72.8 16.7 31.1 26.3 65.3 35.8 99.3l-503.7 45.5-210.8-67.5z"/>
							<path id="&lt;Path&gt;" class="s9" d="m2406.9 643.8c-2.3 5.4-5.9 10-10.4 13.7 1.4 3.6 2.2 7.5 2.2 11.5 0 17.7-14.3 32-32 32-5.6 0-10.9-1.4-15.5-4-4.5 19.3-21.8 33.6-42.4 33.6-24.1 0-43.6-19.5-43.6-43.6 0-2 0.2-3.9 0.4-5.8-14.6-3-25.5-15.9-25.5-31.4 0-11 5.5-20.7 14-26.5-2.3-5.4-3.7-11.3-3.7-17.6 0-24.1 19.5-43.6 43.6-43.6 13.8 0 26.1 6.4 34 16.3 12.8-3.7 28.3-2.9 43.3 3.3 28.9 12.1 44.8 39.8 35.6 62.1z"/>
							<path id="&lt;Path&gt;" class="s9" d="m2210.7 589.3c-1.1 2.7-2.9 5.1-5.2 6.9 0.7 1.8 1.1 3.8 1.1 5.8 0 8.9-7.2 16.1-16.1 16.1-2.9 0-5.5-0.7-7.8-2-2.3 9.7-11 16.9-21.4 16.9-12.1 0-21.9-9.8-21.9-21.9q0-1.5 0.2-3c-7.4-1.5-12.9-8-12.9-15.8 0-5.5 2.8-10.4 7.1-13.3-1.2-2.7-1.9-5.7-1.9-8.9 0-12.1 9.9-21.9 22-21.9 6.9 0 13.1 3.2 17.1 8.2 6.4-1.9 14.2-1.5 21.8 1.6 14.5 6.1 22.6 20.1 17.9 31.3z"/>
							<path id="&lt;Path&gt;" class="s10" d="m2065.5 545c1.1 4 0.5 8.4-2.8 12.5-7.8 9.6-21.6 5.3-25.1-5.6-1.4-4.2-2-8.9-0.6-13.1 5-15 25-6.3 28.5 6.2z"/>
							<path id="&lt;Path&gt;" class="s10" d="m2195.8 711c0.8 2.5 0.4 5.3-1.7 7.9-5 6.1-13.7 3.4-16-3.5-0.8-2.7-1.2-5.7-0.3-8.4 3.2-9.5 15.8-3.9 18 4z"/>
							<path id="&lt;Path&gt;" class="s10" d="m2499 592c0.7 2.6 0.4 5.4-1.7 8-5 6.1-13.8 3.4-16-3.5-0.8-2.7-1.2-5.7-0.3-8.4 3.1-9.5 15.8-4 18 3.9z"/>
						</g>
					</g>
					<path id="&lt;Compound Path&gt;" fill-rule="evenodd" class="s5" d="m2611.1 915.3h-643c-24.3 0-44.1-19.7-44.1-44v-382.1h731.1v382.1c0 24.3-19.8 44-44 44zm-682.8-421.9v377.9c0 22 17.8 39.8 39.8 39.8h643c21.9 0 39.7-17.8 39.7-39.8v-377.9z"/>
					<g id="&lt;Group&gt;">
						<g id="&lt;Group&gt;">
							<path id="&lt;Path&gt;" class="s3" d="m2653 369.6v121.7h-726.8v-121.7c0-23.1 18.7-41.9 41.9-41.9h643c23.1 0 41.9 18.8 41.9 41.9z"/>
							<path id="&lt;Compound Path&gt;" fill-rule="evenodd" class="s5" d="m2655.1 493.4h-731.1v-123.8c0-24.2 19.8-44 44.1-44h643c24.2 0 44 19.8 44 44zm-726.8-4.2h722.5v-119.6c0-21.9-17.8-39.7-39.7-39.7h-643c-22 0-39.8 17.8-39.8 39.7z"/>
						</g>
						<path id="&lt;Path&gt;" class="s10" d="m2055.2 409.5c0 16.8-13.6 30.5-30.4 30.5-16.8 0-30.4-13.7-30.4-30.5 0-16.8 13.6-30.4 30.4-30.4 16.8 0 30.4 13.6 30.4 30.4z"/>
						<g id="&lt;Group&gt;">
							<path id="&lt;Path&gt;" class="s3" d="m2470.1 436.4h-338.4c-14.9 0-26.9-12-26.9-26.9 0-14.8 12-26.9 26.9-26.9h338.4c14.8 0 26.9 12.1 26.9 26.9 0 14.9-12.1 26.9-26.9 26.9z"/>
							<path id="&lt;Compound Path&gt;" fill-rule="evenodd" class="s5" d="m2470.1 438.5h-338.4c-16 0-29-13-29-29 0-16 13-29 29-29h338.4c16 0 29 13 29 29 0 16-13 29-29 29zm-338.4-53.8c-13.7 0-24.8 11.1-24.8 24.8 0 13.7 11.1 24.8 24.8 24.8h338.4c13.7 0 24.8-11.1 24.8-24.8 0-13.7-11.1-24.8-24.8-24.8z"/>
						</g>
					</g>
				</g>
				<g id="&lt;Group&gt;">
					<g id="&lt;Group&gt;">
						<path id="&lt;Path&gt;" class="s7" d="m2401 760.6c-35.1-39.9-77.5-62-125.6-70.5l89.7-6-76.5-38.3 82.5 15.6-44.3-29.9c61 1.2 122.1 58.6 122.1 58.6z"/>
						<path id="&lt;Path&gt;" class="s11" d="m2410.1 757.2c-14-29.2-33.9-47.5-58.4-57.6l48.2 4.6-36.1-32 41.9 17.9-19.9-23.6c32.1 6.6 57.8 49.5 57.8 49.5z"/>
					</g>
					<g id="&lt;Group&gt;">
						<g id="&lt;Group&gt;">
							<path id="&lt;Path&gt;" class="s2" d="m2563.3 748l62.3-77.1c31.4 19.3 11 94.9 43.7 152z"/>
							<path id="&lt;Path&gt;" class="s12" d="m2563.3 748l-22-22.4 52.7-47.9c6.4-5.8 14.9-8.6 23.5-7.7l8.1 0.9z"/>
						</g>
						<g id="&lt;Group&gt;">
							<path id="&lt;Path&gt;" class="s2" d="m2577 937.1c-62.6-19.9-132.2 15.9-157.8-10.7l62.3-77.2z"/>
							<path id="&lt;Path&gt;" class="s12" d="m2419.2 926.4l-2.5-7.7c-2.7-8.2-1.8-17.2 2.6-24.7l35.7-61.6 26.5 16.8z"/>
						</g>
						<path id="&lt;Path&gt;" class="s6" d="m2667 961.1l44.3-54.8 22.7 63.6z"/>
						<path id="&lt;Path&gt;" class="s12" d="m2488.5 704.4c105.2 24.1 197.6 90.3 222.8 201.9l-44.2 54.8c-114.4-1.2-198.6-77.6-244.3-175.4z"/>
						<path id="&lt;Path&gt;" class="s2" d="m2422.8 785.7l-40.2-16.2 81.6-101 24.3 35.9z"/>
						<path id="&lt;Path&gt;" class="s6" d="m2399 699.3c3.2-4 9-4.6 12.9-1.4l83.1 67.1c4 3.2 4.6 9 1.4 13-3.2 4-9 4.6-13 1.4l-83-67.1c-4-3.2-4.6-9-1.4-13z"/>
						<path id="&lt;Path&gt;" class="s3" d="m2600.3 911.5c-16.7-13.4-19.3-37.7-5.8-54.3 13.4-16.7 37.7-19.3 54.3-5.8 16.7 13.4 19.3 37.7 5.8 54.4-13.4 16.6-37.7 19.2-54.3 5.7z"/>
						<path id="&lt;Path&gt;" class="s6" d="m2609.7 899.8c-10.1-8.2-11.7-23-3.5-33.2 8.2-10.1 23-11.7 33.2-3.5 10.1 8.2 11.7 23 3.5 33.2-8.2 10.1-23 11.7-33.2 3.5z"/>
						<path id="&lt;Path&gt;" class="s3" d="m2634.2 882.4c-1.8-1.5-2.1-4.3-0.6-6.1 1.5-1.9 4.2-2.2 6.1-0.7 1.8 1.5 2.1 4.2 0.6 6.1-1.5 1.9-4.2 2.2-6.1 0.7z"/>
					</g>
				</g>
			</g>
			<g id="&lt;Group&gt;">
				<g id="&lt;Group&gt;">
					<path id="&lt;Path&gt;" class="s2" d="m1762.2 1253l1.4 458.1-441.8 1.4-65.1-329.9-236.5 209.5 120.4-315.1c24.8-65.3 79.7-114.5 147.2-132.4l192.6-50.9 147.6 9z"/>
					<path id="&lt;Path&gt;" class="s12" d="m1510.3 1273.7c-26.8 0-51.8-10.4-68.3-28.8l3.2-2.8c17.6 19.6 45.6 29.8 74.7 26.9 31.2-3 58.4-20.5 74.8-47.9l3.6 2.2c-17 28.6-45.5 46.8-78 49.9q-5.1 0.5-10 0.5z"/>
				</g>
				<g id="&lt;Group&gt;">
					<path id="&lt;Path&gt;" class="s13" d="m1528.6 1216.1c-28.3 13.6-63 0.1-77.2-30.1l-4.8-10.2-48.7-103.5-29.8-63.3 143.9-69.5 62.6 133.1c25.8 54.7 5.2 118.7-46 143.5z"/>
					<path id="&lt;Path&gt;" class="s6" d="m1525.7 1045.6c-12.7 61.7-44.3 104-79.1 130.2l-48.7-103.5z"/>
					<path id="&lt;Path&gt;" class="s13" d="m1542.6 968.4c0 74.5-42 125.6-95.3 151.9-54.8 27.1-112.1-77-139.4-146.6-28.4-72.2 49.7-126.3 115.1-126.3 65.4 0 119.6 46.6 119.6 121z"/>
					<path id="&lt;Path&gt;" class="s6" d="m1537 932.3c0 0-78.6-2.8-106.2-43.2-88.2 67.2-151.5 80.7-220.1 44.6 0 0 57.2-28.1 75-85.6 27.6-89.2 140.2-89.9 167.1-52.4 70.8-18.5 86.4 53.8 92.7 130.3z"/>
					<path id="&lt;Path&gt;" class="s13" d="m1567.5 961.9c-3.1 24.2-20.9 41.8-39.8 39.4-18.8-2.5-31.6-24-28.5-48.1 3.1-24.2 20.9-41.8 39.7-39.4 18.9 2.5 31.7 24 28.6 48.1z"/>
					<path id="&lt;Path&gt;" class="s6" d="m1540.2 939.3c-4.6 3.8-6.1 8.9-6 14.4 0 2.7 0.4 5.4 1.2 8 0.9 2.6 2 5.1 3.9 7.3l-1.3 2.1c-3.5-1.1-6.1-4.1-7.7-7.2-1.7-3.2-2.5-6.7-2.5-10.2 0.1-3.6 0.9-7.2 2.8-10.4 1.9-3.1 5.1-5.6 8.6-6.3z"/>
					<g id="&lt;Group&gt;">
						<path id="&lt;Path&gt;" class="s6" d="m1431.5 984.7c0.4 6.6-4 12.3-9.9 12.7-5.9 0.4-11.1-4.7-11.5-11.3-0.5-6.6 4-12.3 9.9-12.7 5.9-0.4 11.1 4.7 11.5 11.3z"/>
						<path id="&lt;Path&gt;" class="s6" d="m1373.5 1003.4c2.2 5.7-0.1 11.8-5.1 13.7-5 2-10.9-1-13.1-6.6-2.1-5.6 0.2-11.8 5.2-13.7 5-2 10.8 1 13 6.6z"/>
						<path id="&lt;Path&gt;" class="s6" d="m1449.9 954.3c0.2 3.4-17.7 2.3-25.4 3.9-6.5 1.4-16.5 7.8-21 1.4-4.1-5.7 6.1-12.2 18.8-13.1 12.6-0.8 27.4 4.5 27.6 7.8z"/>
						<path id="&lt;Path&gt;" class="s6" d="m1344.8 971.9c7.5-5.5 17.2-5.3 18.6 1.2 1.6 7.2-7.9 7-12.4 9.1-5.2 2.4-14.4 11.9-16.4 9.2-2-2.8 2.7-14.1 10.2-19.5z"/>
						<path id="&lt;Path&gt;" class="s6" d="m1406.2 1067.2c4.1-5 10-8.2 15.9-10.2 6-1.9 12.1-2.8 18.3-2.3l0.5 2.4c-5.6 2.7-11.4 4.2-16.9 6-5.5 1.7-10.7 3.7-16.3 6.1z"/>
						<path id="&lt;Path&gt;" class="s14" d="m1390.1 1013.8c0.3 4.6-0.3 9.6-2.7 14.1-1.2 2.2-2.8 4.2-4.5 5.9-1.7 1.7-3.3 3.1-3.7 4.1-0.2 0.6-0.4 1-0.3 1.7 0 0.5 0.1 0.5 0.1 0.6 0 0.1 0.2 0.2 0.3 0.4 0.8 0.9 2.7 1.8 4.5 2.5 3.9 1.4 8.3 2.3 12.6 3.4l-0.1 2.5c-4.6 0.6-9.2 0.5-14-0.5-2.4-0.6-4.9-1.3-7.4-3.5-0.6-0.6-1.2-1.3-1.6-2.2-0.4-1-0.7-2-0.7-2.7-0.2-1.5 0.1-3.3 0.8-4.9 1.7-3 3.8-4.4 5.3-5.8 1.6-1.4 2.9-2.8 4-4.4 2.3-3.2 3.7-7.2 4.9-11.4z"/>
						<path id="&lt;Path&gt;" class="s15" d="m1506 1001c0.9 14.9-10.4 27.9-25.4 28.9-14.9 1-27.9-10.4-28.9-25.3-1-15 10.4-28 25.3-28.9 15-1 28 10.3 29 25.3z"/>
					</g>
				</g>
				<path id="&lt;Path&gt;" class="s2" d="m1935.8 1377.6l-160.9 59.7-146.9-334.6 19.9 1.2c97.6 6 184.2 64.4 226.2 152.7z"/>
				<g id="&lt;Group&gt;">
					<path id="&lt;Path&gt;" class="s13" d="m1375.6 1089.7c2.9 11.2 4.8 30.1-2.6 73.6-9.1 53.2-102.8 326.6-153.7 453.2-15.2 37.7-54.9 59.3-94.7 51.6-54.3-10.5-84.2-69.4-60.5-119.4l196.8-415.7c35.1-106.2 35.1-206 51-212.4 15.9-6.3 18.1 131.7 18.1 131.7 0 0 3.7-82.8 18.5-89.2 14.9-6.3 10.7 51 12.3 75.4 1.2 19.1 10.1 32.7 14.8 51.2z"/>
					<path id="&lt;Path&gt;" class="s14" d="m1262.2 1123.8c6-16.3 9.9-33.4 13.6-50.5 3.6-17.2 6.6-34.4 9.8-51.7l9.2-51.8c1.6-8.6 3.3-17.2 5.3-25.8 1-4.3 2.1-8.6 3.5-12.9 0.7-2.1 1.4-4.2 2.4-6.4q0.7-1.5 1.8-3.1c0.7-1 1.6-2.3 3.6-3l-0.1 0.1c0.6-0.1 1.2-0.2 1.9-0.2 0.6 0.1 1.1 0.3 1.7 0.5 0.9 0.6 1.8 1.2 2.2 1.9 1.2 1.4 1.8 2.8 2.5 4.2 1.2 2.7 2.1 5.5 2.8 8.3 1.5 5.6 2.5 11.2 3.4 16.9 1.8 11.3 3 22.6 4 33.9 1.8 22.7 2.8 45.4 2.6 68.2l-4.9-0.2c0.6-12.8 1.5-25.6 3-38.3 1.5-12.8 3.3-25.5 7.3-38 1.1-3.1 2.3-6.2 4.2-9.2 1-1.5 2-2.9 3.7-4.1 1.5-1.3 3.9-2 6.1-1.7 0.5 0.2 1 0.3 1.5 0.5 0.5 0.2 0.9 0.2 1.5 0.8q0.5 0.3 0.8 0.7c0.3 0.3 0.4 0.5 0.5 0.7 0.3 0.4 0.6 0.9 0.8 1.3 0.7 1.7 1.2 3.3 1.6 4.9 0.8 3.3 1.3 6.5 1.8 9.7 1.6 12.8 2.1 25.7 2 38.5-0.1 6.5-0.5 12.7 0.1 19 0.5 6.2 1.6 12.4 3.2 18.5 1.7 6.1 3.7 12.1 6 18 2.3 5.9 4.6 12.1 5.9 18.4 2.7 12.8 3 25.8 1.8 38.6-1.2 12.8-3.7 25.5-7 37.8l-1.9-0.5c3.1-12.3 5.4-24.9 6.3-37.5 0.9-12.6 0.4-25.4-2.5-37.6-1.4-6.2-3.5-12-5.9-18-2.3-5.9-4.4-12-6.1-18.3-1.7-6.2-3-12.6-3.5-19.1-0.7-6.5-0.3-13-0.3-19.3 0.1-12.7-0.5-25.5-2.2-37.9-0.4-3.1-0.9-6.3-1.7-9.2-0.4-1.5-0.9-2.9-1.4-4.2-0.1-0.3-0.3-0.5-0.5-0.7-0.1-0.4-0.2-0.4-0.2-0.4 0.1-0.1-0.4-0.1-0.6-0.2-0.2-0.1-0.5-0.2-0.8-0.3-1.8-0.3-3.9 1.4-5.4 3.9-1.5 2.5-2.6 5.3-3.6 8.2-3.8 11.9-5.5 24.6-6.9 37.2-1.4 12.6-2.3 25.3-2.7 38l-4.9-0.1c0.2-22.6-0.5-45.2-2.2-67.7-0.9-11.3-2-22.5-3.7-33.6-0.9-5.6-1.9-11.1-3.3-16.5-0.6-2.7-1.5-5.3-2.5-7.7-0.5-1.2-1.1-2.4-1.8-3.2-0.4-0.5-0.7-0.7-1-0.9-0.1 0-0.2-0.1-0.2-0.1-0.1 0.1-0.2 0.1-0.3 0h-0.1c-0.1 0-0.8 0.6-1.3 1.3q-0.8 1.2-1.4 2.6c-0.9 1.8-1.6 3.8-2.3 5.9-1.3 4.1-2.4 8.3-3.4 12.5-2.1 8.5-3.8 17-5.5 25.6l-9.5 51.7c-3.1 17.3-6.6 34.5-10.5 51.7-3.9 17.1-8.2 34.2-14.6 50.6z"/>
				</g>
				<g id="&lt;Group&gt;">
					<path id="&lt;Path&gt;" class="s13" d="m2012.7 1611.1c-0.7 48.9-22.1 83.1-48.8 102.8l-54.2-0.9-13.5-0.2h-0.2l-63.8-145.1-0.1-0.3-57.2-130.1 160.9-59.7 60 147.3c12.3 32.6 17.3 61.3 16.9 86.2z"/>
					<path id="&lt;Path&gt;" class="s13" d="m1944.8 1712.8l-420.6 0.1-27.6-14.2c-20.2-10.3-43.4-12.9-65.4-7.4-39.9 10-84.3 27.9-118.2 18.3-20.2-5.6 57.7-76.2 105.6-114.4 20.4-16.3 47.6-21.3 72.5-13.2l54.9 17.7 422.2-47.2z"/>
					<g id="&lt;Group&gt;">
						<path id="&lt;Path&gt;" class="s14" d="m1323 1702.2c11.4-6.7 23-13 34.6-19.3 11.6-6.3 23.3-12.2 35-18.3 5.7-3 11.9-6.1 18.3-8.4 6.5-2.2 13.1-3.8 19.8-4.5 6.8-0.8 13.6-0.9 20.3-0.3 6.7 0.8 13.3 2.1 19.6 4.2l-0.6 2.4c-6.4-1.2-12.9-2-19.3-2.1-6.4-0.2-12.9 0.2-19.2 1.3-6.3 1-12.5 2.6-18.5 4.9-6 2.1-11.6 5.1-17.5 8.1-11.9 5.8-23.6 11.9-35.5 17.5-11.8 5.7-23.8 11.4-35.9 16.7z"/>
						<path id="&lt;Path&gt;" class="s14" d="m1329.2 1681.1c7.6-7.3 15.6-14.1 23.8-20.7 8.2-6.7 16.6-13.1 25.2-19.2 8.7-6 17.4-11.9 26.7-17.1 9.4-4.9 18.9-10.2 30.1-11.3l0.2 2.5c-4.8 1.3-9.5 3.2-14 5.8-4.6 2.3-9 5.1-13.4 7.8-8.8 5.6-17.4 11.6-25.9 17.5-8.6 6-17 12.2-25.6 18.2-8.5 6.2-17 12.4-25.6 18.4z"/>
					</g>
					<path id="&lt;Path&gt;" class="s14" d="m1831.6 1570.5l-0.2-6.3 56.7-1.4 0.1 6.3z"/>
					<path id="&lt;Path&gt;" class="s4" d="m1773 1438.2l-41.1-83.7 3.8-1.9 41.2 83.7z"/>
					<path id="&lt;Path&gt;" class="s15" d="m2012.7 1611.1c-0.7 48.9-22.1 83.1-48.8 102.8l-54.2-0.9c-0.1 0-0.1-0.1-0.1-0.2-2-7.1-3-14.5-3-22.3 0-35.1 21.8-65.1 52.7-77.1 9.3-3.7 19.5-5.7 30.1-5.7 8.1 0 15.9 1.2 23.3 3.4z"/>
				</g>
			</g>
			<g id="&lt;Group&gt;">
				<g id="&lt;Group&gt;">
					<path id="&lt;Path&gt;" class="s6" d="m1340.2 1712.6h-242.1v-51h242.1z"/>
					<path id="&lt;Path&gt;" class="s4" d="m1180.2 1712.6h-384.4l-110.4-384.4h384.4z"/>
				</g>
				<path id="&lt;Path&gt;" class="s6" d="m794.3 1713l-111-386.4h118.9v3.2h-114.7l109.8 382.3z"/>
				<path id="&lt;Path&gt;" class="s6" d="m1139.1 1572l-70.5-242.2h-177.2v-3.2h179.6l71.1 244.6z"/>
			</g>
			<g id="&lt;Group&gt;">
				<path id="&lt;Path&gt;" class="s4" d="m1186.6 390.8c0 17.6-14.3 31.8-31.9 31.8-17.6 0-31.8-14.2-31.8-31.8 0-17.6 14.2-31.9 31.8-31.9 17.6 0 31.9 14.3 31.9 31.9z"/>
				<path id="&lt;Path&gt;" class="s4" d="m520.4 1151.1c0 22.7-18.4 41-41 41-22.7 0-41.1-18.3-41.1-41 0-22.7 18.4-41.1 41.1-41.1 22.6 0 41 18.4 41 41.1z"/>
				<g id="&lt;Group&gt;">
					<path id="&lt;Path&gt;" class="s4" d="m2522.5 1231.8c0 17.6-14.3 31.8-31.9 31.8-17.6 0-31.8-14.2-31.8-31.8 0-17.6 14.2-31.9 31.8-31.9 17.6 0 31.9 14.3 31.9 31.9z"/>
					<path id="&lt;Compound Path&gt;" class="s5" d="m2450.8 1252.6v-4.2c5.1-0.1 10.2-1 15-2.6l1.4 4c-5.3 1.8-10.8 2.7-16.4 2.8zm-16.4-2.2c-5.3-1.6-10.4-4-14.9-7.1l2.4-3.5c4.2 2.9 8.8 5.1 13.7 6.6zm47.4-8.4l-2.5-3.4c4.1-3.1 7.7-6.8 10.7-10.9l3.4 2.4c-3.2 4.6-7.1 8.5-11.6 11.9zm-74.4-10.2c-3.4-4.4-6.1-9.3-8-14.5l4-1.4c1.7 4.8 4.2 9.3 7.4 13.3zm93.4-16.5l-4-1.3c1.5-4.8 2.3-9.9 2.3-15.1q0-1.9-0.1-3.8l4.2-0.4q0.2 2.1 0.2 4.3c0 5.5-0.9 11-2.6 16.3zm-104.7-14.2q0-1.1 0-2.1c0-4.9 0.7-9.8 1.9-14.4l4.1 1.1c-1.1 4.3-1.7 8.7-1.7 13.2q0 1 0 2zm99.3-20.9c-1.9-4.7-4.6-9.1-7.9-13l3.2-2.7c3.6 4.2 6.5 9 8.6 14.1zm-87-8.4l-3.5-2.3c3-4.6 6.8-8.8 11.1-12.3l2.7 3.3c-4 3.3-7.5 7.1-10.3 11.3zm67.6-14.7c-4.3-2.7-9-4.7-14-6l1.1-4.1c5.3 1.4 10.5 3.6 15.2 6.6zm-44.1-4.3l-1.6-4c5.2-2 10.7-3.2 16.2-3.5l0.3 4.3c-5.2 0.3-10.2 1.3-14.9 3.2z"/>
				</g>
				<path id="&lt;Compound Path&gt;" fill-rule="evenodd" class="s5" d="m1736.7 484.2c-12.9 0-23.4-10.5-23.4-23.4 0-12.8 10.5-23.3 23.4-23.3 12.8 0 23.3 10.5 23.3 23.3 0 12.9-10.5 23.4-23.3 23.4zm0-42.5c-10.6 0-19.1 8.6-19.1 19.1 0 10.6 8.5 19.2 19.1 19.2 10.5 0 19.1-8.6 19.1-19.2 0-10.5-8.6-19.1-19.1-19.1z"/>
			</g>
			<path id="&lt;Path&gt;" class="s6" d="m2549.4 1715.7h-2092.7v-6.4h2092.7z"/>
		</g>
	</g>
</svg>