<svg version="1.2" xmlns="http://www.w3.org/2000/svg" viewBox="0 0 1000 1000" width="1000" height="1000">
	<title>2710435-ai</title>
	<style>
		tspan { white-space:pre } 
		.s0 { fill: #e8e8f9 } 
		.s1 { fill: #542bda } 
		.s2 { fill: #3700b3 } 
		.s3 { fill: #6b5eff } 
		.s4 { fill: #ffffff } 
		.s5 { fill: #2e3062 } 
		.t6 { font-size: 52px;fill: #524e84;font-weight: 900;font-family: "Montserrat-Black", "Montserrat" } 
		.s7 { fill: #ffaa01 } 
		.s8 { fill: #fba691 } 
		.s9 { fill: #001030 } 
		.s10 { fill: #524e84 } 
		.s11 { fill: #fb876b } 
		.s12 { fill: #d45c48 } 
		.s13 { fill: #f88800 } 
		.s14 { opacity: .4;fill: #ffffff } 
		.s15 { fill: #fdcc50 } 
		.s16 { fill: #f6f6f6 } 
	</style>
	<g id="BACKGROUND">
		<g id="&lt;Group&gt;">
		</g>
	</g>
	<g id="OBJECTS">
		<g id="&lt;Group&gt;">
			<path id="&lt;Path&gt;" class="s0" d="m198.7 801.1c-131-52.5-174.2-262.3-73.6-331.1 118-80.8 5-230.7 179.1-265.5 131.1-26.2 262.5 120.6 379.3 114.9 145.2-7.2 296.7 61 170.2 227.2-102.3 134.4-24.6 220 20.8 254.5z"/>
			<path id="&lt;Path&gt;" class="s0" d="m851.7 700.5c-11.6-23.2 2-59 22.1-58.3 33.2 1.1 33.2 41.7 31.7 59.1-0.7 7.8-4.8 14.9-11.3 19-14.4 9.2-32.5 0.2-42.5-19.8z"/>
			<path id="&lt;Path&gt;" class="s0" d="m707.6 242c28.5 4 65.9 34.5 35 56.5-38.3 27.3-76.3-13.7-76.3-13.7-25-29.5 10.3-47.2 41.3-42.8z"/>
			<path id="&lt;Path&gt;" class="s0" d="m93.5 382.2c3.4-27.7 32.1-64.6 54.1-35 27.2 36.6-11.8 74.2-11.8 74.2-28.1 24.8-46-9.1-42.3-39.2z"/>
		</g>
		<path id="&lt;Path&gt;" class="s0" d="m934.3 806.1c0 15-185.9 27.1-415.2 27.1-229.3 0-415.2-12.1-415.2-27.1 0-14.9 185.9-27.1 415.2-27.1 229.3 0 415.2 12.2 415.2 27.1z"/>
		<g id="&lt;Group&gt;">
			<g id="&lt;Group&gt;">
				<g id="&lt;Group&gt;">
					<g id="&lt;Group&gt;">
						<path id="&lt;Path&gt;" class="s1" d="m919.2 491.5c-19.2 30.4 8.9 26.2-5 49-12.8 20.9-41 9.8-30 51.1 2.4 9-2.7 17.3-11.2 22.8-14 9.2-30.2 7.3-41.8-1.1q-1.4-1-2.7-2.2c-9.2-7.9-14.7-20.3-12.4-34.3 1.9-11.4 7-23.3 19.3-30.4 28.9-16.6 2.4-53.8 28.2-61.5 31.1-9.3 29.6-21.1 48.6-41.8 20-21.9 33 7.2 7 48.4z"/>
					</g>
					<g id="&lt;Group&gt;">
						<g id="&lt;Group&gt;">
							<path id="&lt;Path&gt;" class="s2" d="m905 480.4c-0.5 0.9-44.6 73.2-73.8 132.9q-1.4-1-2.7-2.2c29.2-59.8 73.1-131.6 73.6-132.4 0.5-0.8 1.6-1.1 2.4-0.6 0.8 0.5 1 1.5 0.5 2.3z"/>
						</g>
					</g>
				</g>
				<g id="&lt;Group&gt;">
					<g id="&lt;Group&gt;">
						<path id="&lt;Path&gt;" class="s3" d="m944.2 572.8c-33.7 31.6 2.7 35.5-22 59.5-22.6 21.7-54.2-1.1-53.7 53.8 0.1 12.1-9 20.7-21.4 24.9-20.4 6.8-39.9-0.7-51.6-14.9q-1.5-1.7-2.7-3.6c-8.9-12.9-11.7-30-4.3-46.7 6-13.6 16.2-26.8 33.8-31.6 41.2-11.4 20.2-66.2 54.8-67.5 41.8-1.5 43.7-16.7 73.9-36.4 32-20.8 38.9 19.6-6.8 62.5z"/>
					</g>
					<g id="&lt;Group&gt;">
						<g id="&lt;Group&gt;">
							<path id="&lt;Path&gt;" class="s1" d="m930.1 554.5c-0.9 0.9-79.1 76.6-134.6 141.6q-1.5-1.7-2.7-3.6c55.7-65 133.4-140.2 134.3-141.2 0.9-0.8 2.3-0.8 3.1 0.1 0.8 0.9 0.8 2.3-0.1 3.1z"/>
						</g>
					</g>
				</g>
			</g>
			<g id="&lt;Group&gt;">
				<g id="&lt;Group&gt;">
					<g id="&lt;Group&gt;">
						<path id="&lt;Path&gt;" class="s1" d="m142.9 160.6c15.1 23.6 11.6 35.1 40.6 49.6 24.1 12.1-8.4 44.1 17.1 65.4 10.9 9.1 13.9 21.7 13.8 33.3-0.2 14.2-7.7 25.4-18.1 31.7q-1.5 0.9-3.1 1.6c-12.9 6.3-29.1 5.4-41.4-6.1-7.4-6.9-11-15.9-7.1-24.4 18.1-38.8-11.7-32.8-20.6-55.5-9.8-24.9 17.2-15.9 3.5-49.2-18.5-45-0.6-71.5 15.3-46.4z"/>
					</g>
					<g id="&lt;Group&gt;">
						<g id="&lt;Group&gt;">
							<path id="&lt;Path&gt;" class="s2" d="m144.4 196.4c0.9-0.3 1.9 0.1 2.2 1 0.4 0.9 31.2 79.2 49.7 143.2q-1.5 0.9-3.1 1.6c-18.4-63.8-49.4-142.6-49.7-143.6-0.4-0.9 0.1-1.8 0.9-2.2z"/>
						</g>
					</g>
				</g>
				<g id="&lt;Group&gt;">
					<g id="&lt;Group&gt;">
						<path id="&lt;Path&gt;" class="s3" d="m90.9 231.1c27.1 23.7 26.8 39.1 67.9 46.6 34.1 6.2 5.5 57.5 44.7 74.6 16.7 7.3 24.9 21.8 28.9 36.1 4.9 17.6-0.4 34.2-10.9 45.6q-1.6 1.7-3.2 3.2c-13.7 12.4-34.1 17-53.3 7.3-11.7-5.9-19.3-15.7-17.5-27.6 8.2-54.4-26.3-36.2-45.5-61-21-27.2 15.5-25.9-13.3-62-39.1-49-26.5-88.1 2.2-62.8z"/>
					</g>
					<g id="&lt;Group&gt;">
						<g id="&lt;Group&gt;">
							<path id="&lt;Path&gt;" class="s1" d="m105.6 274.7c1-0.7 2.4-0.6 3.1 0.4 0.8 1 67 86.6 112.8 158.9q-1.6 1.7-3.2 3.2c-45.7-72.2-112.2-158.4-113-159.4-0.8-1-0.6-2.3 0.3-3.1z"/>
						</g>
					</g>
				</g>
			</g>
			<g id="&lt;Group&gt;">
				<path id="&lt;Path&gt;" class="s3" d="m446.8 339.1c-19 6.7-30 15.4-35.3 20.5l-3.8 10.6c-1.6-0.1-3.3-0.7-4.8-1.8l9.4-26.4c-1.1-8.4-4.5-24.3-15.1-42.1-15.7-26.1-19.7-44.5-6.6-44.4 17 0.1 29.2 41.4 25.6 75.5l20.1-56.2c-0.9-7.2-3.8-21.1-14.4-38.5-14-23.1-24.7-50.2-7.5-48.7 17.2 1.5 29.6 43 25.3 77.5l16.7-46.8c-0.5-4.5-2.3-13.3-9-24.4-8.8-14.5-15.6-31.6-4.8-30.7 10.9 1 18.8 27.3 16 49l3.5-9.9c3.3-29.9 23.9-63 36.5-60.2 12.6 2.8 0.3 21.8-16.1 38.6-7 7.3-11.5 15.3-14.6 20.9l-6.9 19.3c12.3-15 30.2-25.7 38-20.4 9 6.1-7.1 15-23.1 20.7-8.6 3.1-14.6 6.7-18.5 9.8l-21.2 59.4c19.3-26.7 51.5-47.3 64.8-38.2 14.2 9.8-11.2 23.9-36.7 32.9-16.3 5.8-26.8 13.1-32.7 18.3l-16.6 46.2c18.7-29.1 54.2-53.1 68.5-43.4 14.2 9.7-11.3 23.9-36.7 32.9z"/>
			</g>
			<g id="&lt;Group&gt;">
				<path id="&lt;Path&gt;" class="s3" d="m234.7 796.2c-8.2-2.1-24.2-4.7-44.6-1.2-30 5.1-48.7 2.2-43.9-10 6.3-15.8 49.2-12.2 79.7 3.5l-45.1-39c-7-1.9-21-4.2-41.1-0.6-26.6 4.6-55.7 4.9-48.1-10.6 7.6-15.6 50.8-12 81.4 4.4l-37.5-32.5c-4.5-1.2-13.3-2.7-26.1-0.4-16.7 2.9-35.1 3.1-30.3-6.7 4.9-9.8 32.2-7.6 51.5 2.9l-8-6.9c-26.6-13.9-50-45.1-42.9-55.8 7.2-10.8 20.4 7.6 30.2 28.9 4.2 9.3 10.1 16.3 14.2 21.3l15.4 13.4c-9.5-16.9-13-37.5-5.2-42.9 9-6.1 11.4 12.1 10.9 29.1-0.2 9.1 1 16 2.4 20.8l47.7 41.3c-17.9-27.7-25.4-65.1-12.1-74.3 14.3-9.7 18.2 19.2 17.4 46.1-0.5 17.4 2.5 29.7 5.1 37.2l37.1 32.1c-20.4-27.9-29.9-69.7-15.6-79.5 14.2-9.7 18.1 19.2 17.3 46.1-0.6 20.2 3.5 33.6 6.4 40.4l0.3 0.3h-7.9z"/>
			</g>
		</g>
		<g id="&lt;Group&gt;">
			<g id="&lt;Group&gt;">
			</g>
			<g id="&lt;Group&gt;">
				<path id="&lt;Path&gt;" class="s0" d="m840.5 325v32.1h-659.5v-32.1c0-5.1 4.2-9.2 9.3-9.2h641c5 0 9.2 4.1 9.2 9.2z"/>
				<g id="&lt;Group&gt;">
					<path id="&lt;Path&gt;" class="s4" d="m298.3 332.1h480.7c3 0 5.5 2.4 5.5 5.4 0 3.1-2.5 5.5-5.5 5.5h-480.7c-3 0-5.5-2.4-5.5-5.5 0-3 2.5-5.4 5.5-5.4z"/>
				</g>
				<path id="&lt;Path&gt;" class="s5" d="m217.7 337.5v4.1c0 1.2-1.3 1.9-2.3 1.3l-3.5-2-3.5-2c-1-0.6-1-2.1 0-2.7l3.5-2 3.5-2c1-0.6 2.3 0.1 2.3 1.3z"/>
				<path id="&lt;Path&gt;" class="s5" d="m236 333.5c0-1.2 1.3-1.9 2.3-1.3l3.5 2 3.5 2c1 0.6 1 2.1 0 2.7l-3.5 2-3.5 2c-1 0.6-2.3-0.1-2.3-1.3v-4.1z"/>
			</g>
			<text id="SEARCH
" style="transform: matrix(2,0,0,2,280.383,490.617)" >
				<tspan x="0" y="0" class="t6">SEARCH
</tspan>
			</text>
			<g id="&lt;Group&gt;">
				<path id="&lt;Path&gt;" class="s0" d="m738.6 563.3c0 13-10.5 23.6-23.6 23.6h-410c-13.1 0-23.7-10.6-23.7-23.6 0-13.1 10.6-23.7 23.7-23.7h410c13.1 0 23.6 10.6 23.6 23.7z"/>
				<g id="&lt;Group&gt;">
					<path id="&lt;Path&gt;" class="s7" d="m738.6 563.3c0 13-10.5 23.6-23.6 23.6h-65v-47.3h65c13.1 0 23.6 10.6 23.6 23.7z"/>
				</g>
				<g id="&lt;Group&gt;">
					<g id="&lt;Group&gt;">
						<path id="&lt;Compound Path&gt;" fill-rule="evenodd" class="s4" d="m698.5 567.9c-4.5-4.1-4.8-11.2-0.7-15.7 4.2-4.5 11.3-4.8 15.8-0.6 4.5 4.1 4.8 11.2 0.6 15.7-4.2 4.5-11.2 4.8-15.7 0.6zm12.6-13.6c-3-2.8-7.8-2.6-10.6 0.4-2.7 3-2.6 7.7 0.5 10.5 3 2.8 7.7 2.6 10.5-0.4 2.8-3 2.6-7.8-0.4-10.5z"/>
					</g>
					<g id="&lt;Group&gt;">
						<path id="&lt;Path&gt;" class="s4" d="m686.2 581.3c-0.8-0.7-0.8-1.9-0.1-2.6l12.3-13.4c0.7-0.7 1.8-0.8 2.6-0.1 0.7 0.7 0.8 1.9 0.1 2.6l-12.3 13.4c-0.7 0.7-1.9 0.7-2.6 0.1z"/>
					</g>
				</g>
			</g>
			<g id="&lt;Group&gt;">
				<path id="&lt;Path&gt;" class="s0" d="m288.9 635.4h441.6c4 0 7.3 3.3 7.3 7.3 0 4-3.3 7.3-7.3 7.3h-441.6c-4 0-7.3-3.3-7.3-7.3 0-4 3.3-7.3 7.3-7.3z"/>
				<path id="&lt;Path&gt;" class="s0" d="m288.9 671.3h441.6c4 0 7.3 3.3 7.3 7.3 0 4-3.3 7.3-7.3 7.3h-441.6c-4 0-7.3-3.3-7.3-7.3 0-4 3.3-7.3 7.3-7.3z"/>
				<path id="&lt;Path&gt;" class="s0" d="m288.9 707.2h441.6c4 0 7.3 3.3 7.3 7.3 0 4.1-3.3 7.3-7.3 7.3h-441.6c-4 0-7.3-3.2-7.3-7.3 0-4 3.3-7.3 7.3-7.3z"/>
			</g>
			<g id="&lt;Group&gt;">
				<path id="&lt;Compound Path&gt;" fill-rule="evenodd" class="s0" d="m261 632.4q-1.4 2.9-3.5 5.3l5.3 7.8-8.6 5.7-5-7.4c-2.1 0.9-4.3 1.5-6.5 1.7l-2.1 10.3-10.1-1.9 1.9-9.6c-2.7-0.9-5.3-2.4-7.5-4.4l-7.9 5.3-5.7-8.6 7.5-5c-1.1-2.5-1.7-5.1-1.8-7.8l-8.6-1.7 2-10.1 8.2 1.6c1.2-2.8 3-5.4 5.2-7.6l-5-7.5 8.5-5.8 5.3 7.8q3-1 6.1-1.1l2-9.8 10.1 2-1.9 9.4c2.8 1.2 5.5 2.9 7.7 5.2l7.5-5 5.7 8.5-7.8 5.3c0.8 2.4 1.2 4.9 1.3 7.4l9.4 1.8-2 10.2zm-13-15.3c-2.9-4.3-8.8-5.5-13.1-2.6-4.3 3-5.5 8.8-2.6 13.2 2.9 4.3 8.8 5.4 13.1 2.5 4.3-2.9 5.5-8.8 2.6-13.1z"/>
				<path id="&lt;Compound Path&gt;" fill-rule="evenodd" class="s0" d="m795.4 415.6q-0.7 1.5-1.9 2.8l2.9 4.3-4.7 3.1-2.7-4.1q-1.8 0.8-3.6 1l-1.1 5.6-5.6-1 1.1-5.3c-1.5-0.5-2.9-1.3-4.2-2.4l-4.2 2.9-3.2-4.7 4.1-2.7c-0.6-1.4-0.9-2.8-1-4.3l-4.7-0.9 1.1-5.5 4.6 0.9c0.6-1.6 1.5-3 2.8-4.2l-2.8-4.1 4.7-3.1 2.9 4.2q1.6-0.5 3.3-0.6l1.1-5.4 5.5 1.1-1 5.2c1.5 0.6 3 1.6 4.2 2.8l4.1-2.7 3.1 4.6-4.3 2.9q0.7 2 0.7 4.1l5.2 1-1.1 5.5zm-7.1-8.3c-1.6-2.4-4.8-3-7.2-1.4-2.3 1.6-3 4.8-1.4 7.1 1.6 2.4 4.8 3 7.2 1.4 2.3-1.6 3-4.8 1.4-7.1z"/>
				<path id="&lt;Compound Path&gt;" fill-rule="evenodd" class="s0" d="m241.8 472.2q-0.7 1.6-1.9 2.9l2.9 4.2-4.7 3.2-2.7-4.1q-1.8 0.7-3.6 0.9l-1.1 5.7-5.6-1.1 1.1-5.2c-1.5-0.5-2.9-1.3-4.1-2.4l-4.3 2.9-3.2-4.7 4.1-2.7c-0.6-1.4-0.9-2.9-1-4.3l-4.7-0.9 1.1-5.6 4.6 0.9c0.6-1.5 1.5-2.9 2.8-4.2l-2.8-4 4.7-3.2 2.9 4.3q1.6-0.6 3.3-0.7l1.1-5.3 5.5 1.1-1 5.2c1.5 0.6 3 1.5 4.2 2.8l4.1-2.8 3.1 4.7-4.2 2.9q0.6 2 0.6 4l5.2 1-1.1 5.6zm-7.1-8.4c-1.6-2.3-4.8-3-7.2-1.4-2.3 1.6-3 4.8-1.4 7.2 1.6 2.4 4.8 3 7.2 1.4 2.4-1.6 3-4.8 1.4-7.2z"/>
			</g>
		</g>
		<g id="&lt;Group&gt;">
			<path id="&lt;Path&gt;" class="s0" d="m276 866.4c0 7.5-45.6 13.6-101.7 13.6-56.2 0-101.7-6.1-101.7-13.6 0-7.5 45.5-13.6 101.7-13.6 56.1 0 101.7 6.1 101.7 13.6z"/>
			<g id="&lt;Group&gt;">
				<g id="&lt;Group&gt;">
					<path id="&lt;Path&gt;" class="s1" d="m207.1 488c0 0 14.6 53.5 38.7 64.7 0 0 9.9-1.7 21.3-4.9 1.3 7.3 2.3 12.9 4.5 18.3-7.7 4.3-15.5 8-27.8 10.6 0 0-31-9.6-40.4-43.8 0 0-10.7-31.3 3.7-44.9z"/>
				</g>
				<g id="&lt;Group&gt;">
					<g id="&lt;Group&gt;">
						<path id="&lt;Path&gt;" class="s8" d="m133.7 816.8l-12.2 15.7c-7.6-4.7-9.4-10.8-9.4-10.8l10.2-13.6z"/>
					</g>
					<g id="&lt;Group&gt;">
						<g id="&lt;Group&gt;">
							<g id="&lt;Group&gt;">
								<path id="&lt;Path&gt;" class="s7" d="m119.8 828.3c0 0 4.8-1 6.4 0.6 1.6 1.7 5.7 24.1 9.6 29 3.8 4.9 0 7.5-2.4 8.5-2.4 1-36.2-32.8-36.2-32.8 0 0 8.4-11.5 12.4-13.7 4-2.3 5.9 6 10.2 8.4z"/>
							</g>
						</g>
						<g id="&lt;Group&gt;">
							<g id="&lt;Group&gt;">
								<g id="&lt;Group&gt;">
									<path id="&lt;Path&gt;" class="s4" d="m120.4 841.4q-0.3-0.1-0.5-0.5c-0.1-0.4 0.1-1 0.5-1.2 0.2 0 3.7-1.6 6.4-1 3.8 0.6 4.7 3.8 4.7 4 0.2 0.4-0.1 0.9-0.6 1.1-0.4 0.1-0.9-0.2-1-0.6-0.1-0.1-0.7-2.3-3.4-2.8-2.3-0.4-5.4 1-5.4 1q-0.4 0.1-0.7 0z"/>
								</g>
							</g>
							<g id="&lt;Group&gt;">
								<g id="&lt;Group&gt;">
									<path id="&lt;Path&gt;" class="s4" d="m119.9 837.8q-0.4-0.1-0.5-0.5c-0.2-0.4 0-1 0.5-1.2 0.1 0 3.6-1.5 6.4-1 3.7 0.7 4.6 3.8 4.7 4 0.1 0.5-0.2 0.9-0.6 1.1-0.5 0.1-1-0.1-1.1-0.6 0-0.1-0.7-2.3-3.3-2.8-2.3-0.4-5.4 1-5.5 1q-0.3 0.1-0.6 0z"/>
								</g>
							</g>
							<g id="&lt;Group&gt;">
								<g id="&lt;Group&gt;">
									<path id="&lt;Path&gt;" class="s4" d="m122 845.2q-0.3-0.2-0.5-0.5c-0.2-0.5 0-1 0.5-1.2 0.1 0 3.6-1.6 6.4-1.1 3.7 0.7 4.6 3.9 4.7 4.1 0.1 0.4-0.2 0.9-0.6 1.1-0.5 0.1-0.9-0.2-1.1-0.6 0-0.1-0.7-2.3-3.3-2.8-2.3-0.4-5.4 0.9-5.5 0.9q-0.3 0.2-0.6 0.1z"/>
								</g>
							</g>
						</g>
					</g>
				</g>
				<g id="&lt;Group&gt;">
					<g id="&lt;Group&gt;">
						<path id="&lt;Path&gt;" class="s8" d="m199.2 830.4l1.4 19.8c-8.7 1.6-14.2-1.7-14.2-1.7l-1.5-17z"/>
					</g>
					<g id="&lt;Group&gt;">
						<g id="&lt;Group&gt;">
							<g id="&lt;Group&gt;">
								<path id="&lt;Path&gt;" class="s7" d="m197.5 847.8c0 0 3-4.1 5.4-4 2.5 0.2 21.3 14.7 27.7 15.8 6.4 1.2 5.3 5.9 4.1 8.3-1.1 2.4-50.7 1-50.7 1 0 0-1.8-16-0.3-20.5 1.6-4.6 8.9 0.6 13.8-0.6z"/>
							</g>
						</g>
						<g id="&lt;Group&gt;">
							<g id="&lt;Group&gt;">
								<g id="&lt;Group&gt;">
									<path id="&lt;Path&gt;" class="s4" d="m209.8 858.6q-0.3 0.1-0.7 0c-0.4-0.3-0.6-0.8-0.4-1.2 0.1-0.2 1.8-3.6 4.3-5 3.3-1.8 6.1 0.1 6.2 0.1 0.4 0.3 0.5 0.9 0.2 1.3-0.3 0.4-0.8 0.5-1.2 0.2-0.1-0.1-2-1.3-4.3 0-2 1.1-3.6 4.2-3.6 4.2q-0.2 0.3-0.5 0.4z"/>
								</g>
							</g>
							<g id="&lt;Group&gt;">
								<g id="&lt;Group&gt;">
									<path id="&lt;Path&gt;" class="s4" d="m207.1 856.2q-0.3 0.1-0.7-0.1c-0.4-0.2-0.6-0.7-0.4-1.1 0.1-0.2 1.8-3.6 4.3-5 3.3-1.8 6 0 6.1 0.1 0.4 0.3 0.6 0.9 0.3 1.3-0.3 0.4-0.8 0.5-1.2 0.2-0.1-0.1-2-1.3-4.3 0-2.1 1.1-3.6 4.2-3.6 4.2q-0.2 0.3-0.5 0.4z"/>
								</g>
							</g>
							<g id="&lt;Group&gt;">
								<g id="&lt;Group&gt;">
									<path id="&lt;Path&gt;" class="s4" d="m213.4 860.5q-0.3 0.1-0.7 0c-0.4-0.3-0.6-0.8-0.3-1.2 0-0.2 1.7-3.6 4.2-5 3.3-1.8 6.1 0.1 6.2 0.1 0.4 0.3 0.5 0.9 0.2 1.3-0.2 0.4-0.8 0.5-1.2 0.2-0.1-0.1-2-1.3-4.3 0-2 1.1-3.6 4.2-3.6 4.2q-0.2 0.3-0.5 0.4z"/>
								</g>
							</g>
						</g>
					</g>
				</g>
				<g id="&lt;Group&gt;">
					<path id="&lt;Path&gt;" class="s9" d="m214.5 646.5l-17.4 104.6-65.3 67.6-11.9-9.1c0 0 19.7-34.9 27.1-48.4 8.8-16.1 18-28.6 18-28.6l10.4-85.3z"/>
					<path id="&lt;Path&gt;" class="s5" d="m134.7 818.5c-1 2.7-3 4.5-5.4 6.1l-13.8-11.7q1.7-3.7 4.7-6.4z"/>
				</g>
				<g id="&lt;Group&gt;">
					<path id="&lt;Path&gt;" class="s5" d="m176.7 647.3l19.2 76.3 4.7 105.3-18.2 0.8c0 0-5.2-37.8-7.8-45.8-6.1-18.3-9.7-52.6-9.7-52.6-23.9-35.2-42.3-80.4-42.3-80.4z"/>
					<path id="&lt;Path&gt;" class="s10" d="m202.2 828.3c1.2 3.1 0.9 6.3 0 9.4l-20.9 0.6c-0.9-3-1.2-6.1-0.9-9.2z"/>
				</g>
				<g id="&lt;Group&gt;">
					<g id="&lt;Group&gt;">
						<g id="&lt;Group&gt;">
							<g id="&lt;Group&gt;">
								<g id="&lt;Group&gt;">
									<path id="&lt;Path&gt;" class="s3" d="m207.1 488c2.7 3.4 8.2 38.2 9 73.5q0.1 1.2 0.1 2.4 0.1 5.6 0.2 11.2 0.2 5.6 0.2 11.1c0.1 6 0.2 11.9 0.3 17.6q0 1 0 1.9c0.1 5.6 0.1 10.9 0.2 15.9q0 0.9 0 1.9c0.1 7.4 0.1 14 0.1 19.3q0 1.2 0 2.2c0 3.7 0 6.6 0 8.6q-13.2 3.6-26.4 5.1-0.3 0.1-0.7 0.1-0.6 0.1-1.1 0.2-0.2 0-0.3 0-2.3 0.2-4.6 0.4-11.3 1-22.6 0.4-1 0-2-0.1-0.9 0-1.8-0.1-0.4 0-0.8 0-0.8-0.1-1.5-0.1-16.6-1.4-33.3-5.9c0-4.4-0.1-13.2-0.1-24.7q0-1 0-1.9c0-12.7 0-28.2 0.2-44.2q0-1.9 0-3.8 0.1-2.2 0.1-4.4 0-0.4 0-0.8 0-0.5 0-1 0-1.1 0-2.1 0.1-1.5 0.1-3 0-1.2 0-2.3 0-2.3 0.1-4.6c0.5-31.7 1.6-60.9 3.6-68.4q0.3-1 0.6-1.4 0.3-0.5 0.8-1 0.6-0.7 1.3-1.4c3.4-3.1 9.3-6.7 15.3-10.2q1.1-0.6 2.1-1.2c0.1-0.1 16.3-5.5 16.4-5.6l16.8 1.2c0 0 23.7 10.2 27.7 15.2z"/>
								</g>
							</g>
						</g>
					</g>
					<g id="&lt;Group&gt;">
						<g id="&lt;Group&gt;">
							<path id="&lt;Path&gt;" class="s1" d="m138.7 534.3c-6.6 8.7-10.6 18.3-13 25.8-1.7 5.6-2.8 10.6-3.4 14.5q0-0.4 0-0.8 0-0.5 0-1 0-1.1 0-2.1 0.1-1.5 0.1-3 0-1.2 0-2.3 0.7-2.8 1.6-5.8c2.5-7.7 6.5-17.4 13.3-26.4 0.5-0.6 1.6-0.3 1.6 0.6q0 0.3-0.2 0.5z"/>
						</g>
					</g>
					<g id="&lt;Group&gt;">
						<g id="&lt;Group&gt;">
							<path id="&lt;Path&gt;" class="s1" d="m141.5 625.1c0-0.5 0.4-0.9 0.8-0.9 17.8-0.1 33-8.2 42.7-15 10.4-7.4 16.8-14.8 16.8-14.9 0.4-0.4 0.9-0.4 1.3-0.1 0.3 0.3 0.4 0.8 0.1 1.2-0.1 0.1-6.5 7.7-17.2 15.2-9.8 7-25.4 15.3-43.6 15.3q0 0 0 0c-0.5 0-0.9-0.3-0.9-0.8z"/>
						</g>
					</g>
					<g id="&lt;Group&gt;">
						<g id="&lt;Group&gt;">
							<path id="&lt;Path&gt;" class="s1" d="m157.4 631.9c-0.5 0-0.8-0.4-0.8-0.9 0.1-0.5 0.5-0.9 1-0.8 16.5 1.7 35-8.9 35.2-9 0.4-0.3 1-0.1 1.2 0.3 0.3 0.4 0.1 1-0.3 1.2-0.7 0.4-16.5 9.4-32.3 9.4q-2 0-4-0.2z"/>
						</g>
					</g>
					<g id="&lt;Group&gt;">
						<g id="&lt;Group&gt;">
							<path id="&lt;Path&gt;" class="s1" d="m153 501.4c-0.5 0.1-1-0.2-1.1-0.7 0-0.5 0.3-0.9 0.8-1 16.3-2.8 31.4-17.9 31.5-18.1 0.3-0.3 0.9-0.3 1.2 0 0.4 0.3 0.4 0.9 0.1 1.2-0.6 0.6-13.4 13.5-28.7 17.8q-1.9 0.5-3.8 0.8z"/>
						</g>
					</g>
				</g>
				<g id="&lt;Group&gt;">
					<g id="&lt;Group&gt;">
						<path id="&lt;Path&gt;" class="s5" d="m170.6 401.5c15.4 0 24.5 11.6 24.5 27.1 0 15.4-10.7 26.8-26.1 26.8-15.4 0-24.9-10.6-24.9-26 0-15.5 8-27.9 26.5-27.9z"/>
						<path id="&lt;Path&gt;" class="s5" d="m144.4 433.5c0 0-5.4-8.2-2.5-14.5 2.9-6.5 1.4-5.1 2.2-9.9 0.7-4.9 4.3-6.9 8.5-7.6 4.3-0.7 1.4-5.6 7.3-7.4 5.9-1.8 10.6 4.4 14.4 1.6 3.8-2.7 13.1-4.1 15.7 0 2.7 4.2 5 4.1 7.8 4 3.3-0.2 7.8 5.1 4.8 10-3 4.9-8.2 3-7.5 6.3 0.8 3.4 5.1 9.3-0.7 16.8-1.8 2.3-50 0.7-50 0.7z"/>
						<g id="&lt;Group&gt;">
							<g id="&lt;Group&gt;">
								<path id="&lt;Path&gt;" class="s11" d="m149.2 450.3c-7.8 3.4-12.3-10.6-9.1-15.3 3.1-4.7 7.4 1 7.4 1z"/>
							</g>
							<g id="&lt;Group&gt;">
								<g id="&lt;Group&gt;">
									<path id="&lt;Path&gt;" class="s12" d="m147.5 446c-0.3 0-0.6-0.2-0.7-0.5-1.2-4.3-5.6-6.1-5.7-6.1-0.3-0.1-0.5-0.5-0.4-0.8 0.2-0.4 0.5-0.5 0.9-0.4 0.2 0.1 5.1 2 6.5 6.9 0.1 0.4-0.1 0.8-0.5 0.9q0 0-0.1 0z"/>
								</g>
							</g>
							<g id="&lt;Group&gt;">
								<g id="&lt;Group&gt;">
									<path id="&lt;Path&gt;" class="s12" d="m143 443.8q-0.2 0-0.4-0.1c-0.3-0.2-0.4-0.6-0.2-0.9 0-0.1 0.8-1.3 2.5-2 0.3-0.1 0.7 0 0.9 0.3 0.1 0.4 0 0.8-0.4 0.9-1.3 0.6-1.9 1.5-1.9 1.5-0.1 0.2-0.3 0.3-0.5 0.3z"/>
								</g>
							</g>
						</g>
						<g id="&lt;Group&gt;">
							<g id="&lt;Group&gt;">
								<path id="&lt;Path&gt;" class="s11" d="m191.7 436c0 0 4.3-5.7 7.5-1 3.1 4.7-1.4 18.7-9.2 15.3z"/>
							</g>
							<g id="&lt;Group&gt;">
								<g id="&lt;Group&gt;">
									<g id="&lt;Group&gt;">
										<path id="&lt;Path&gt;" class="s12" d="m191.6 446c-0.4-0.1-0.6-0.5-0.5-0.9 1.4-4.9 6.3-6.8 6.5-6.9 0.4-0.1 0.7 0 0.9 0.4 0.1 0.3-0.1 0.7-0.4 0.8-0.1 0-4.5 1.8-5.7 6.1-0.1 0.3-0.4 0.5-0.7 0.5q-0.1 0-0.1 0z"/>
									</g>
								</g>
							</g>
							<g id="&lt;Group&gt;">
								<g id="&lt;Group&gt;">
									<path id="&lt;Path&gt;" class="s12" d="m195.7 443.5c0 0-0.6-0.9-1.9-1.5-0.3-0.1-0.5-0.5-0.3-0.9 0.1-0.3 0.5-0.4 0.8-0.3 1.7 0.7 2.5 1.9 2.5 2 0.2 0.3 0.1 0.7-0.2 0.9q-0.2 0.1-0.4 0.1c-0.2 0-0.4-0.1-0.5-0.3z"/>
								</g>
							</g>
						</g>
						<g id="&lt;Group&gt;">
							<path id="&lt;Path&gt;" class="s8" d="m180.2 462.1v14.7c0 0-2.3 3.4-6.9 4-6.5 0.7-13.4-6.1-13.4-6.1v-11.6z"/>
						</g>
						<g id="&lt;Group&gt;">
							<path id="&lt;Path&gt;" class="s11" d="m180.2 462.1v6.2c-3.8 4.2-10.5 5.2-20.3 3.7v-8.9z"/>
						</g>
						<g id="&lt;Group&gt;">
							<path id="&lt;Path&gt;" class="s8" d="m145 425.7c0.1-5.1 2.9-9.8 7.3-12.3 12.1-6.9 24.8-4.3 33.2-1.1 5.9 2.3 9.6 8 9.3 14.2-0.1 2.7-0.3 5.8-0.6 8.8q-0.2 1.9-0.4 3.8-0.4 2.5-0.8 4.8 0 0 0 0.1-0.4 2.1-0.9 3.8c-2.9 10.2-10.2 27.7-30.7 20.4-9-3.2-13.2-13.3-15-23.5q-0.1-0.1-0.1-0.2c-0.4-2.1-0.6-4.2-0.8-6.3q-0.2-1.2-0.2-2.4c-0.3-3.8-0.4-7.3-0.3-10.1z"/>
						</g>
						<path id="&lt;Compound Path&gt;" fill-rule="evenodd" class="s5" d="m147.8 436.1c0 0 1.9 7.9 4 13.4 4.5-4.7 17.8 0 17.8 0 0 0 14.9-5.4 17.6 1.1 1.7-3.1 3-9.8 3.9-14.5l3.1-0.8q-0.2 1.9-0.4 3.8-0.4 2.5-0.8 4.8 0 0 0 0.1-0.4 2.1-0.9 3.8c-2.9 10.2-10.2 27.7-30.7 20.4-9-3.2-13.2-13.3-15-23.5q-0.1-0.1-0.1-0.2c-0.4-2.1-0.6-4.2-0.8-6.3q-0.2-1.2-0.2-2.5zm9.5 22.3c5.5 4.3 12.9 4.3 16.6 3.5 3-0.7 6.3-2.4 9.2-5.5-0.5-3.2-3.2-5.9-13.9-4.5-13-3.2-12.4 4-11.9 6.5z"/>
						<path id="&lt;Path&gt;" class="s5" d="m162.7 436.8c0 1.5-0.8 2.7-1.8 2.7-0.9 0-1.7-1.2-1.7-2.7 0-1.5 0.8-2.7 1.7-2.7 1 0 1.8 1.2 1.8 2.7z"/>
						<path id="&lt;Path&gt;" class="s5" d="m182.4 436.8c0 1.5-0.7 2.7-1.7 2.7-0.9 0-1.7-1.2-1.7-2.7 0-1.5 0.8-2.7 1.7-2.7 1 0 1.7 1.2 1.7 2.7z"/>
						<path id="&lt;Path&gt;" class="s5" d="m185.6 430.3c-3.1-1.2-9.2-0.7-9.2-0.7l-0.4-2.3c4.2-1.8 9.6 0.3 9.6 0.3 0.3 0.9 0.3 1.8 0 2.7z"/>
						<path id="&lt;Path&gt;" class="s5" d="m154.2 427.6c0 0 5.4-2.1 9.5-0.3l-0.4 2.3c0 0-6.1-0.5-9.1 0.7-0.3-0.9-0.3-1.8 0-2.7z"/>
						<g id="&lt;Group&gt;">
							<g id="&lt;Group&gt;">
								<path id="&lt;Path&gt;" class="s11" d="m170.3 448.5c-1.1 0.1-2.3-0.2-2.5-0.3-0.3 0-0.5-0.4-0.4-0.8 0.1-0.3 0.4-0.5 0.8-0.4 0.6 0.1 2.1 0.3 2.6-0.1 0.2-0.1 0.3-0.2 0.3-0.6-0.1-2.4-1.6-9.9-1.6-10-0.1-0.4 0.1-0.7 0.5-0.8 0.3-0.1 0.7 0.2 0.8 0.5 0 0.3 1.6 7.8 1.6 10.2 0 0.9-0.4 1.5-0.7 1.7-0.4 0.3-0.9 0.5-1.4 0.6z"/>
							</g>
						</g>
						<path id="&lt;Path&gt;" class="s4" d="m177.9 452.4c-0.5 3.1-2.2 7.7-8.3 7.7-6 0-7.8-5-8.3-7.7z"/>
						<path id="&lt;Path&gt;" class="s5" d="m194.1 436.1h-3c0.3-3-0.8-6.6-1.7-9-2-5.5 2.3-7.9-1.2-10.6-3.5-2.8-12.2-1.6-18.3-1.8-6.1-0.2-16-0.1-18.4 0.4-2.3 0.6-1 4.5-0.2 7.6 0.9 3.1-2.9 6.5-3.5 9.7-0.2 0.9-0.2 2.3 0 3.7h-2.5c-0.3-3.8-0.4-7.5-0.3-10.4 0.1-5.1 2.9-9.8 7.3-12.3 12.1-6.8 24.8-4.3 33.2-1.1 5.9 2.3 9.6 8 9.3 14.2-0.2 2.9-0.4 6.3-0.7 9.6z"/>
						<g id="&lt;Group&gt;">
							<g id="&lt;Group&gt;">
								<path id="&lt;Compound Path&gt;" fill-rule="evenodd" class="s4" d="m172.9 438.2c0-4.4 3.5-7.9 7.8-7.9 4.3 0 7.9 3.5 7.9 7.9 0 4.3-3.6 7.8-7.9 7.8-4.3 0-7.8-3.5-7.8-7.8zm1.2 0c0 3.6 3 6.6 6.6 6.6 3.7 0 6.6-3 6.6-6.6 0-3.7-2.9-6.7-6.6-6.7-3.6 0-6.6 3-6.6 6.7z"/>
							</g>
							<g id="&lt;Group&gt;">
								<path id="&lt;Compound Path&gt;" fill-rule="evenodd" class="s4" d="m151.4 438.2c0-4.4 3.5-7.9 7.8-7.9 4.4 0 7.9 3.5 7.9 7.9 0 4.3-3.5 7.8-7.9 7.8-4.3 0-7.8-3.5-7.8-7.8zm1.2 0c0 3.6 3 6.6 6.6 6.6 3.7 0 6.7-3 6.7-6.6 0-3.7-3-6.7-6.7-6.7-3.6 0-6.6 3-6.6 6.7z"/>
							</g>
							<g id="&lt;Group&gt;">
								<path id="&lt;Path&gt;" class="s4" d="m186.8 435.4c-0.2-0.2-0.2-0.6 0-0.8 0.2-0.2 4.1-4 9.4-2.7 0.4 0 0.6 0.4 0.5 0.7-0.1 0.3-0.4 0.5-0.7 0.4-4.7-1-8.3 2.4-8.3 2.4q-0.2 0.2-0.5 0.2-0.2 0-0.4-0.2z"/>
							</g>
							<g id="&lt;Group&gt;">
								<path id="&lt;Path&gt;" class="s4" d="m152.2 435.5c0 0-5.4-3.5-9.6-2.8-0.4 0.1-0.7-0.1-0.7-0.5-0.1-0.3 0.2-0.6 0.5-0.7 4.7-0.7 10.3 2.8 10.5 3 0.3 0.2 0.4 0.6 0.2 0.8-0.1 0.2-0.3 0.3-0.5 0.3q-0.2 0-0.4-0.1z"/>
							</g>
							<g id="&lt;Group&gt;">
								<path id="&lt;Path&gt;" class="s4" d="m165.7 435.7c0-0.1 1.8-2.5 4.3-2.5 2.6 0 4.2 2.4 4.3 2.5l-1 0.7c0 0-1.4-2-3.3-2-1.9 0-3.3 2-3.3 2z"/>
							</g>
						</g>
					</g>
				</g>
				<g id="&lt;Group&gt;">
					<g id="&lt;Group&gt;">
						<path id="&lt;Path&gt;" class="s7" d="m243.2 565.4l39.7-51.8 8.3-10.8 25.5 19.5-14 18.4-34 44.3c-1.7 2.2-4.9 2.6-7.1 0.9l-17.5-13.4c-2.2-1.7-2.6-4.9-0.9-7.1z"/>
					</g>
					<g id="&lt;Group&gt;">
						<path id="&lt;Path&gt;" class="s13" d="m291.2 502.8l25.5 19.5-14 18.4c-10.2-8.2-16.2-18.7-19.8-27.1z"/>
					</g>
					<path id="&lt;Path&gt;" class="s5" d="m190.3 644.4l54.7-71.3 15.8 12.2-54.7 71.2c-3.1 4.1-9 4.9-13 1.8l-1.1-0.8c-4.1-3.2-4.8-9-1.7-13.1z"/>
					<g id="&lt;Group&gt;">
						<path id="&lt;Compound Path&gt;" fill-rule="evenodd" class="s5" d="m408.9 376.5c39.5 30.6 46.7 87.4 16.1 126.8-30.6 39.5-87.4 46.7-126.8 16.1-39.5-30.6-46.7-87.4-16.1-126.8 30.6-39.5 87.4-46.7 126.8-16.1zm-102.2 131.9c33.3 25.9 81.5 19.8 107.3-13.6 25.9-33.3 19.8-81.5-13.6-107.3-33.3-25.9-81.5-19.8-107.3 13.6-25.9 33.3-19.8 81.5 13.6 107.3z"/>
						<path id="&lt;Path&gt;" class="s14" d="m283.1 418.1c3.5-8.4 8.5-15.9 14.5-22.4 6.3-6.7 13.7-12.1 21.8-16.2 12.8-6.4 27.4-9.2 42.2-7.7q5.9 0.7 11.7 2.2c40.8 10.9 65.1 52.9 54.2 93.7q-1.6 5.9-4 11.2c-6 13.7-15.7 24.9-27.7 32.8-7.5 5-16 8.7-24.9 10.8-8.6 2-17.6 2.5-26.6 1.4q-5.3-0.6-10.5-2c-40.8-10.9-65.1-52.9-54.2-93.7q1.4-5.3 3.5-10.1z"/>
						<path id="&lt;Path&gt;" class="s14" d="m361.6 371.8l61.9 107.1c-6 13.7-15.7 24.9-27.7 32.8l-76.4-132.2c12.8-6.4 27.4-9.2 42.2-7.7z"/>
						<path id="&lt;Path&gt;" class="s14" d="m297.6 395.7l73.3 126.8c-8.6 2-17.6 2.5-26.6 1.4l-61.2-105.8c3.5-8.4 8.5-15.9 14.5-22.4z"/>
					</g>
				</g>
				<g id="&lt;Group&gt;">
					<g id="&lt;Group&gt;">
						<path id="&lt;Path&gt;" class="s8" d="m206.9 610.6h3.1c2.8 0 4.9-1.6 6.1-4.1 0.5-1 1.3-3 1.8-3.7 1.4-1.9 5.4-5.2 6.8-5.3 1.5-0.1 1.2 2.7 0.2 3.9-1 1.2-2.7 2.7-3.6 4.4-0.8 1.7 7.2 5.1 10.5 5.9 3.3 0.8 9.1-0.9 9.6 1.8 0.6 2.7-3.7 3.1-3.7 3.1 0 0 1.2 2.5-2.4 4.5 0 0 0.7 2.4-1.6 3.7 0 0 0.2 3-2.5 3.8-2.7 0.8-11.1 3.3-27.5-6.7z"/>
					</g>
					<g id="&lt;Group&gt;">
						<g id="&lt;Group&gt;">
							<g id="&lt;Group&gt;">
								<g id="&lt;Group&gt;">
									<g id="&lt;Group&gt;">
										<path id="&lt;Path&gt;" class="s1" d="m150.4 540.7c6.2 23.5 12.3 33.9 12.3 33.9 0 0 7 10.6 21.3 20.7 10 7 26 15.3 26 15.3-2.7 3.6-4.7 10.7-3.6 12.8-33.3 0-62.4-31.5-62.4-31.5-23.3-40.5-24.8-73.5-24.4-85.6 0.1-4.2 1.3-8.3 3.7-11.9 1.2-1.8 2.7-3.5 4.4-4.3 0 0 10 3.7 13.5 15.4 3.5 11.7 9.2 35.2 9.2 35.2z"/>
									</g>
								</g>
							</g>
						</g>
					</g>
				</g>
				<g id="&lt;Group&gt;">
					<path id="&lt;Path&gt;" class="s8" d="m299.9 552.5c-0.3 2.6-4.1 5.1-4.1 5.1 0.5 2.3-3.1 5.5-3.1 5.5 0 0-0.7 5.4-4.5 4.1-3.9-1.3-10-6.2-8.5-7.3 1.4-1.2 8.3 0.5 8.3 0.5 0 0-7.8-4.9-6.1-6.7 1.7-1.7 10 1.3 10 1.3 0 0-10.9-6.3-8.9-8.7 1.9-2.5 13.4 3.6 13.4 3.6 0 0-9.5-5.1-6.1-6.5 3.4-1.4 10.9 1.2 10.9 1.2 4 3.2-1.3 7.9-1.3 7.9z"/>
				</g>
			</g>
		</g>
		<g id="&lt;Group&gt;">
			<path id="&lt;Path&gt;" class="s0" d="m493.9 866.4c0 7.5-41.9 13.6-93.5 13.6-51.7 0-93.5-6.1-93.5-13.6 0-7.5 41.8-13.6 93.5-13.6 51.6 0 93.5 6.1 93.5 13.6z"/>
			<g id="&lt;Group&gt;">
				<g id="&lt;Group&gt;">
					<g id="&lt;Group&gt;">
						<g id="&lt;Group&gt;">
							<path id="&lt;Compound Path&gt;" fill-rule="evenodd" class="s13" d="m330.7 838.5c-27.8 0-50.3-22.5-50.3-50.3 0-27.7 22.5-50.3 50.3-50.3 27.7 0 50.3 22.6 50.3 50.3 0 27.8-22.6 50.3-50.3 50.3zm0-80.5c-16.7 0-30.3 13.5-30.3 30.2 0 16.7 13.6 30.3 30.3 30.3 16.7 0 30.3-13.6 30.3-30.3 0-16.7-13.6-30.2-30.3-30.2z"/>
						</g>
					</g>
					<g id="&lt;Group&gt;">
						<path id="&lt;Path&gt;" class="s7" d="m330.7 865.9v-159c0-18.8 139.4-18.8 139.4 0v159c0 12.2-139.4 12.2-139.4 0z"/>
					</g>
					<path id="&lt;Path&gt;" class="s5" d="m463 705c0 4.5-28 8.1-62.6 8.1-34.6 0-62.7-3.6-62.7-8.1 0-4.5 28.1-8.2 62.7-8.2 34.6 0 62.6 3.7 62.6 8.2z"/>
				</g>
			</g>
		</g>
		<g id="&lt;Group&gt;">
			<g id="&lt;Group&gt;">
				<g id="&lt;Group&gt;">
					<g id="&lt;Group&gt;">
						<path id="&lt;Compound Path&gt;" fill-rule="evenodd" class="s3" d="m915.8 293.7c6 0 10.9 4.8 10.9 10.8 0 6-4.9 10.8-10.9 10.8-6 0-10.8-4.8-10.8-10.8 0-6 4.8-10.8 10.8-10.8zm0 18.2c4.1 0 7.5-3.3 7.5-7.4 0-4.1-3.4-7.4-7.5-7.4-4.1 0-7.4 3.3-7.4 7.4 0 4.1 3.3 7.4 7.4 7.4z"/>
					</g>
				</g>
				<g id="&lt;Group&gt;">
					<g id="&lt;Group&gt;">
						<g id="&lt;Group&gt;">
							<path id="&lt;Compound Path&gt;" fill-rule="evenodd" class="s7" d="m876.8 255.6c6 0 10.8 4.9 10.8 10.9 0 6-4.8 10.8-10.8 10.8-6 0-10.8-4.8-10.8-10.8 0-6 4.8-10.9 10.8-10.9zm0 18.3c4.1 0 7.5-3.3 7.5-7.4 0-4.1-3.4-7.5-7.5-7.5-4.1 0-7.4 3.4-7.4 7.5 0 4.1 3.3 7.4 7.4 7.4z"/>
						</g>
					</g>
				</g>
				<g id="&lt;Group&gt;">
					<g id="&lt;Group&gt;">
						<g id="&lt;Group&gt;">
							<g id="&lt;Group&gt;">
								<path id="&lt;Path&gt;" class="s3" d="m863.4 220.4c1 0 1.7 0.8 1.7 1.7v7.5c0 1-0.7 1.7-1.7 1.7-0.9 0-1.7-0.7-1.7-1.7v-7.5c0-0.9 0.8-1.7 1.7-1.7z"/>
							</g>
						</g>
						<g id="&lt;Group&gt;">
							<g id="&lt;Group&gt;">
								<path id="&lt;Path&gt;" class="s3" d="m863.4 207.3c1 0 1.7 0.8 1.7 1.7v7.5c0 0.9-0.7 1.7-1.7 1.7-0.9 0-1.7-0.8-1.7-1.7v-7.5c0-0.9 0.8-1.7 1.7-1.7z"/>
							</g>
						</g>
					</g>
					<g id="&lt;Group&gt;">
						<g id="&lt;Group&gt;">
							<g id="&lt;Group&gt;">
								<path id="&lt;Path&gt;" class="s3" d="m852.9 217.6h6.7c1 0 1.7 0.8 1.7 1.7 0 1-0.7 1.7-1.7 1.7h-6.7c-0.9 0-1.7-0.7-1.7-1.7 0-0.9 0.8-1.7 1.7-1.7z"/>
							</g>
						</g>
						<g id="&lt;Group&gt;">
							<g id="&lt;Group&gt;">
								<path id="&lt;Path&gt;" class="s3" d="m867.2 217.6h6.7c1 0 1.7 0.8 1.7 1.7 0 1-0.7 1.7-1.7 1.7h-6.7c-0.9 0-1.7-0.7-1.7-1.7 0-0.9 0.8-1.7 1.7-1.7z"/>
							</g>
						</g>
					</g>
				</g>
				<g id="&lt;Group&gt;">
					<g id="&lt;Group&gt;">
						<g id="&lt;Group&gt;">
							<g id="&lt;Group&gt;">
								<g id="&lt;Group&gt;">
									<path id="&lt;Path&gt;" class="s7" d="m923.3 262.4c0.9 0 1.7 0.8 1.7 1.7v7.5c0 1-0.8 1.7-1.7 1.7-1 0-1.7-0.7-1.7-1.7v-7.5c0-0.9 0.7-1.7 1.7-1.7z"/>
								</g>
							</g>
							<g id="&lt;Group&gt;">
								<g id="&lt;Group&gt;">
									<path id="&lt;Path&gt;" class="s7" d="m923.3 249.3c0.9 0 1.7 0.8 1.7 1.7v7.5c0 1-0.8 1.7-1.7 1.7-1 0-1.7-0.7-1.7-1.7v-7.5c0-0.9 0.7-1.7 1.7-1.7z"/>
								</g>
							</g>
						</g>
						<g id="&lt;Group&gt;">
							<g id="&lt;Group&gt;">
								<g id="&lt;Group&gt;">
									<path id="&lt;Path&gt;" class="s7" d="m912.7 259.6h6.8c0.9 0 1.7 0.8 1.7 1.7 0 1-0.8 1.7-1.7 1.7h-6.8c-0.9 0-1.7-0.7-1.7-1.7 0-0.9 0.8-1.7 1.7-1.7z"/>
								</g>
							</g>
							<g id="&lt;Group&gt;">
								<g id="&lt;Group&gt;">
									<path id="&lt;Path&gt;" class="s7" d="m927 259.6h6.8c0.9 0 1.7 0.8 1.7 1.7 0 1-0.8 1.7-1.7 1.7h-6.8c-0.9 0-1.7-0.7-1.7-1.7 0-0.9 0.8-1.7 1.7-1.7z"/>
								</g>
							</g>
						</g>
					</g>
				</g>
			</g>
			<g id="&lt;Group&gt;">
				<g id="&lt;Group&gt;">
					<g id="&lt;Group&gt;">
						<g id="&lt;Group&gt;">
							<path id="&lt;Compound Path&gt;" fill-rule="evenodd" class="s3" d="m283 240.3c0 6-4.9 10.8-10.9 10.8-5.9 0-10.8-4.8-10.8-10.8 0-6 4.9-10.8 10.8-10.8 6 0 10.9 4.8 10.9 10.8zm-18.3 0c0 4.1 3.3 7.4 7.4 7.4 4.1 0 7.5-3.3 7.5-7.4 0-4.1-3.4-7.4-7.5-7.4-4.1 0-7.4 3.3-7.4 7.4z"/>
						</g>
					</g>
				</g>
				<g id="&lt;Group&gt;">
					<g id="&lt;Group&gt;">
						<g id="&lt;Group&gt;">
							<g id="&lt;Group&gt;">
								<path id="&lt;Compound Path&gt;" fill-rule="evenodd" class="s7" d="m322.4 204.5c0 6-4.8 10.8-10.8 10.8-6 0-10.8-4.8-10.8-10.8 0-6 4.8-10.8 10.8-10.8 6 0 10.8 4.8 10.8 10.8zm-18.2 0c0 4.1 3.3 7.4 7.4 7.4 4.1 0 7.4-3.3 7.4-7.4 0-4.1-3.3-7.4-7.4-7.4-4.1 0-7.4 3.3-7.4 7.4z"/>
							</g>
						</g>
					</g>
				</g>
				<g id="&lt;Group&gt;">
					<g id="&lt;Group&gt;">
						<g id="&lt;Group&gt;">
							<g id="&lt;Group&gt;">
								<path id="&lt;Path&gt;" class="s3" d="m325.9 255.6c0 0.9-0.8 1.7-1.7 1.7h-7.5c-0.9 0-1.7-0.8-1.7-1.7 0-0.9 0.8-1.7 1.7-1.7h7.5c0.9 0 1.7 0.8 1.7 1.7z"/>
							</g>
						</g>
						<g id="&lt;Group&gt;">
							<g id="&lt;Group&gt;">
								<path id="&lt;Path&gt;" class="s3" d="m339 255.6c0 0.9-0.8 1.7-1.7 1.7h-7.5c-0.9 0-1.7-0.8-1.7-1.7 0-0.9 0.8-1.7 1.7-1.7h7.5c0.9 0 1.7 0.8 1.7 1.7z"/>
							</g>
						</g>
					</g>
					<g id="&lt;Group&gt;">
						<g id="&lt;Group&gt;">
							<g id="&lt;Group&gt;">
								<path id="&lt;Path&gt;" class="s3" d="m328.7 245.1v6.7c0 1-0.8 1.7-1.7 1.7-0.9 0-1.7-0.7-1.7-1.7v-6.7c0-1 0.8-1.7 1.7-1.7 0.9 0 1.7 0.7 1.7 1.7z"/>
							</g>
						</g>
						<g id="&lt;Group&gt;">
							<g id="&lt;Group&gt;">
								<path id="&lt;Path&gt;" class="s3" d="m328.7 259.4v6.7c0 1-0.8 1.7-1.7 1.7-0.9 0-1.7-0.7-1.7-1.7v-6.7c0-0.9 0.8-1.7 1.7-1.7 0.9 0 1.7 0.8 1.7 1.7z"/>
							</g>
						</g>
					</g>
				</g>
				<g id="&lt;Group&gt;">
					<g id="&lt;Group&gt;">
						<g id="&lt;Group&gt;">
							<g id="&lt;Group&gt;">
								<g id="&lt;Group&gt;">
									<path id="&lt;Path&gt;" class="s7" d="m246.5 197.1c0 0.9-0.8 1.7-1.7 1.7h-7.5c-0.9 0-1.7-0.8-1.7-1.7 0-1 0.8-1.7 1.7-1.7h7.5c0.9 0 1.7 0.7 1.7 1.7z"/>
								</g>
							</g>
							<g id="&lt;Group&gt;">
								<g id="&lt;Group&gt;">
									<g id="&lt;Group&gt;">
										<path id="&lt;Path&gt;" class="s7" d="m259.6 197.1c0 0.9-0.7 1.7-1.7 1.7h-7.5c-0.9 0-1.7-0.8-1.7-1.7 0-1 0.8-1.7 1.7-1.7h7.5c1 0 1.7 0.7 1.7 1.7z"/>
									</g>
								</g>
							</g>
						</g>
						<g id="&lt;Group&gt;">
							<g id="&lt;Group&gt;">
								<g id="&lt;Group&gt;">
									<path id="&lt;Path&gt;" class="s7" d="m249.3 186.5v6.8c0 0.9-0.7 1.7-1.7 1.7-0.9 0-1.7-0.8-1.7-1.7v-6.8c0-0.9 0.8-1.7 1.7-1.7 1 0 1.7 0.8 1.7 1.7z"/>
								</g>
							</g>
							<g id="&lt;Group&gt;">
								<g id="&lt;Group&gt;">
									<path id="&lt;Path&gt;" class="s7" d="m249.3 200.9v6.7c0 0.9-0.7 1.7-1.7 1.7-0.9 0-1.7-0.8-1.7-1.7v-6.7c0-1 0.8-1.7 1.7-1.7 1 0 1.7 0.7 1.7 1.7z"/>
								</g>
							</g>
						</g>
					</g>
				</g>
			</g>
			<g id="&lt;Group&gt;">
				<g id="&lt;Group&gt;">
					<g id="&lt;Group&gt;">
						<g id="&lt;Group&gt;">
							<path id="&lt;Path&gt;" class="s7" d="m103.8 483.3h-21.6c-7.3 0-13.1-5.8-13.1-13v-21.7c0-7.2 5.8-13.1 13.1-13.1h21.6c7.2 0 13.1 5.9 13.1 13.1v21.7c0 7.2-5.9 13-13.1 13z"/>
						</g>
					</g>
				</g>
				<g id="&lt;Group&gt;">
					<g id="&lt;Group&gt;">
						<path id="&lt;Compound Path&gt;" fill-rule="evenodd" class="s4" d="m90.3 462c-4.2-3.9-4.4-10.4-0.6-14.6 3.9-4.2 10.4-4.4 14.6-0.6 4.2 3.9 4.4 10.4 0.6 14.6-3.9 4.2-10.4 4.4-14.6 0.6zm11.7-12.7c-2.8-2.5-7.2-2.4-9.8 0.4-2.6 2.8-2.4 7.2 0.4 9.8 2.8 2.6 7.2 2.4 9.8-0.4 2.6-2.8 2.4-7.2-0.4-9.8z"/>
					</g>
					<g id="&lt;Group&gt;">
						<path id="&lt;Path&gt;" class="s4" d="m78.9 474.3c-0.7-0.6-0.7-1.7-0.1-2.4l11.4-12.3c0.7-0.7 1.7-0.8 2.4-0.1 0.7 0.6 0.8 1.7 0.1 2.4l-11.4 12.3c-0.6 0.7-1.7 0.7-2.4 0.1z"/>
					</g>
				</g>
			</g>
			<g id="&lt;Group&gt;">
				<g id="&lt;Group&gt;">
					<g id="&lt;Group&gt;">
						<g id="&lt;Group&gt;">
							<g id="&lt;Group&gt;">
								<path id="&lt;Path&gt;" class="s7" d="m917.2 400.5h-21.6c-7.3 0-13.1-5.9-13.1-13.1v-21.7c0-7.2 5.8-13.1 13.1-13.1h21.6c7.3 0 13.1 5.9 13.1 13.1v21.7c0 7.2-5.8 13.1-13.1 13.1z"/>
							</g>
						</g>
					</g>
				</g>
				<path id="&lt;Path&gt;" class="s4" d="m897.3 376.8v-9.2c0-1.1 1.2-1.9 2.2-1.3l9 4.6 8.6 4.5c1.1 0.6 1.1 2.2 0 2.8l-8.6 4.5-9 4.6c-1 0.6-2.2-0.2-2.2-1.3z"/>
			</g>
			<g id="&lt;Group&gt;">
				<g id="&lt;Group&gt;">
					<g id="&lt;Group&gt;">
						<g id="&lt;Group&gt;">
							<path id="&lt;Path&gt;" class="s7" d="m765.7 275.3h-185.7c-13.1 0-23.6-10.5-23.6-23.6v-3.3c0-13 10.5-23.6 23.6-23.6h185.7c13 0 23.6 10.6 23.6 23.6v3.3c0 13.1-10.6 23.6-23.6 23.6z"/>
						</g>
					</g>
					<g id="&lt;Group&gt;">
						<g id="&lt;Group&gt;">
							<path id="&lt;Compound Path&gt;" fill-rule="evenodd" class="s13" d="m779.4 250.1c0 8.2-6.8 15-15.1 15-8.2 0-15-6.8-15-15 0-8.3 6.8-15 15-15 8.3 0 15.1 6.7 15.1 15zm-8.5 5.5q0.8-2.4 0.8-5.2h-6.7v5.2zm-3.6 7.9c3.8-0.8 7.1-3.2 9-6.7h-4.6q-0.9 2.7-2.6 4.8-0.8 1.1-1.8 1.9zm-2.4-6.7v7.1c0.4-0.3 1.9-1.2 3.3-3.1q1.4-1.8 2.2-4zm5.3-14.1c-1.6-3.6-4-5.7-4.7-6.4q-0.3 0-0.6 0v6.4zm5.8 0c-1.9-3-4.9-5.2-8.4-6q1.1 1 1.9 2.3 1.2 1.7 2.1 3.7zm-4.3 6.4q-0.1-2.7-1.1-5.2h-5.7v5.2zm6.4 0q-0.2-2.7-1.4-5.2h-4.7q0.8 2.6 0.9 5.2zm-5.2 1.3q0 2.7-0.7 5.2h4.8q1.1-2.5 1.1-5.2zm-17 0h-5.3q0 2.7 1.1 5.2h4.9q-0.6-2.5-0.7-5.2zm7.8-7.7v-6.4q-0.1 0-0.3 0c-0.6 0.4-1.8 1.6-3.1 3.4q-1 1.4-1.7 3zm-5.6 1.2q-0.9 2.5-1 5.2h6.6v-5.2zm-0.8-1.2q0.8-2 2-3.7 0.9-1.3 2-2.4c-3.5 0.8-6.6 3-8.6 6.1zm-0.2 7.7q0 2.8 0.8 5.2h5.8v-5.2zm-1.2-1.3q0.1-2.6 1-5.2h-4.9q-1.2 2.5-1.4 5.2zm-3.6 7.7c2 3.5 5.3 6 9.2 6.8q-1-0.9-1.9-2-1.6-2.1-2.6-4.8zm6 0c1.7 4.3 4.5 6.4 5.5 7v-7z"/>
						</g>
					</g>
				</g>
				<g id="&lt;Group&gt;">
					<path id="&lt;Compound Path&gt;" fill-rule="evenodd" class="s13" d="m742.2 249.9c0 8.7-7.1 15.8-15.8 15.8h-144.2c-8.7 0-15.8-7.1-15.8-15.8 0-8.7 7.1-15.7 15.8-15.7h144.2c8.7 0 15.8 7 15.8 15.7zm-160-14.3c-7.9 0-14.3 6.4-14.3 14.3 0 7.9 6.4 14.3 14.3 14.3h144.2c7.9 0 14.3-6.4 14.3-14.3 0-7.9-6.4-14.3-14.3-14.3z"/>
				</g>
			</g>
		</g>
		<g id="&lt;Group&gt;">
			<path id="&lt;Path&gt;" class="s0" d="m884.6 875c0 7.5-45.5 13.6-101.6 13.6-56.2 0-101.7-6.1-101.7-13.6 0-7.5 45.5-13.5 101.7-13.5 56.1 0 101.6 6 101.6 13.5z"/>
			<g id="&lt;Group&gt;">
				<g id="&lt;Group&gt;">
					<g id="&lt;Group&gt;">
						<path id="&lt;Path&gt;" class="s1" d="m830.9 873.3h-85c0-4.3 1.8-8.3 4.6-11.1 2.9-2.9 6.8-4.7 11.2-4.7h0.1c0 0 18.1-2.3 18.1-17v-102h17v102c0 14.7 18 17 18 17h0.2c8.7 0 15.8 7.1 15.8 15.8z"/>
					</g>
					<g id="&lt;Group&gt;">
						<path id="&lt;Path&gt;" class="s3" d="m870.1 738.5h-163.5c2.7-14.9 15.8-25.7 30.9-25.7l50.9 0.2 50.8-0.2c15.2 0 28.2 10.8 30.9 25.7z"/>
					</g>
				</g>
				<g id="&lt;Group&gt;">
					<g id="&lt;Group&gt;">
						<path id="&lt;Path&gt;" class="s1" d="m753.2 592l-7.6 16.4c-3.4 11.6 1.2 16.1 4.9 27.6l10.5 23.6-10.5 5.2c0 0-30.5-30.5-28.2-50.9 3.3-28.8 28.2-62 28.2-62z"/>
					</g>
					<g id="&lt;Group&gt;">
						<path id="&lt;Path&gt;" class="s1" d="m828.7 551.4c0 0 24.5 35.4 26.5 64.4 1.8 25-28.2 49-28.2 49l-8.7-4.3 12-23.8c3.8-11.5 5.5-18.4 0.4-30.9l-6.4-13.8z"/>
					</g>
					<g id="&lt;Group&gt;">
						<g id="&lt;Group&gt;">
							<path id="&lt;Path&gt;" class="s3" d="m750.5 551.9c17.2-7.1 27.8-9.9 44.7-8.7 11.5 0.9 22.8 3.7 33.5 8.2l-7.7 74.5 11.1 57c-21.8 5.9-93-3.2-93-3.2l16.4-52.3z"/>
						</g>
						<g id="&lt;Group&gt;">
							<g id="&lt;Group&gt;">
								<path id="&lt;Path&gt;" class="s1" d="m769.4 568c-0.5 0-0.9-0.4-0.9-0.9 0-0.5 0.4-0.9 0.9-0.9 16.5-0.2 33.7-12.9 33.9-13 0.4-0.3 0.9-0.2 1.2 0.2 0.3 0.4 0.2 0.9-0.1 1.2-0.7 0.5-15.3 11.3-31.1 13.1q-1.9 0.3-3.9 0.3z"/>
							</g>
						</g>
					</g>
					<g id="&lt;Group&gt;">
						<g id="&lt;Group&gt;">
							<path id="&lt;Path&gt;" class="s8" d="m800.6 850.5l-1 9.6-12.3-0.3-1.3-11.6z"/>
						</g>
						<g id="&lt;Group&gt;">
							<path id="&lt;Path&gt;" class="s9" d="m808.3 710.5c7.4 23.1-7.1 142-7.1 142l-15.7-0.5-12-118.4c0 0-18.7-13.6-29.7-20.5-11-6.9-13.1-32.2-2.3-41.1 10.7-8.8 42.6-7 42.6-7 0 0 16.9 22.5 24.2 45.5z"/>
							<path id="&lt;Path&gt;" class="s5" d="m802.6 846.7c0.9 2.7 0.5 5.4-0.4 8.1l-18.1-0.4c-0.6-2.7-0.7-5.3-0.3-8z"/>
						</g>
					</g>
					<g id="&lt;Group&gt;">
						<g id="&lt;Group&gt;">
							<path id="&lt;Path&gt;" class="s7" d="m829.1 664.1h-83.5l-7.7-45.2c-0.7-3.9 2.3-7.5 6.3-7.5h86.3c4 0 7 3.6 6.4 7.5z"/>
						</g>
						<path id="&lt;Path&gt;" class="s13" d="m822 673.9h-69.2c-4 0-7.2-3.3-7.2-7.3v-2.5h83.6v2.5c0 4-3.2 7.3-7.2 7.3z"/>
						<g id="&lt;Group&gt;">
							<path id="&lt;Path&gt;" class="s15" d="m794.8 639.6c0 4-3.2 7.3-7.3 7.3-4 0-7.2-3.3-7.2-7.3 0-4 3.2-7.3 7.2-7.3 4.1 0 7.3 3.3 7.3 7.3z"/>
						</g>
					</g>
					<g id="&lt;Group&gt;">
						<g id="&lt;Group&gt;">
							<path id="&lt;Path&gt;" class="s8" d="m746.6 819.1l-4.5 10.3-11-2.2 2.7-11.5z"/>
						</g>
						<g id="&lt;Group&gt;">
							<path id="&lt;Path&gt;" class="s5" d="m835.6 698c-4.6 30.5-42.1 9-42.1 9l-46.2 115.8-14.3-5.9c0 0 20.9-130.4 33.4-145.8 12.5-15.5 33.9-8.1 33.9-8.1 0 0 38.9 10.9 35.3 35z"/>
							<path id="&lt;Path&gt;" class="s10" d="m750.6 816.8c-0.1 3-1.3 5.5-3 7.8l-17.7-6.2c0.3-2.8 1-5.4 2.3-7.9z"/>
						</g>
					</g>
					<g id="&lt;Group&gt;">
						<path id="&lt;Path&gt;" class="s7" d="m746.6 830.1c-0.1 5.1-5.7 20.4-5.7 20.4 0 0-25.5 0.6-39.2-4.2-4.7-1.7-2.1-14 6.3-13.8 4.6 0.2 20.9-11.4 22.8-11 2 0.4 8.7 3.8 8.7 3.8 3.6 2.3 7.2-0.4 7.1 4.8z"/>
						<g id="&lt;Group&gt;">
							<g id="&lt;Group&gt;">
								<g id="&lt;Group&gt;">
									<path id="&lt;Path&gt;" class="s4" d="m724.4 835.7c-0.1-0.1-1.5-3.6-3.7-5.2-2.6-1.7-4.9-0.6-5-0.5-0.5 0.2-1.1 0.1-1.4-0.4-0.2-0.5 0-1.1 0.4-1.3 0.2-0.1 3.5-1.8 7.1 0.6 2.7 1.9 4.3 5.9 4.4 6 0.2 0.5 0 1.1-0.5 1.3-0.3 0.1-0.6 0.1-0.8 0q-0.4-0.2-0.5-0.5z"/>
								</g>
							</g>
							<g id="&lt;Group&gt;">
								<g id="&lt;Group&gt;">
									<path id="&lt;Path&gt;" class="s4" d="m727.7 833.3c0 0-1.5-3.6-3.7-5.1-2.6-1.7-4.9-0.6-5-0.5-0.4 0.2-1.1 0.1-1.3-0.4-0.3-0.5-0.1-1.1 0.4-1.4 0.1 0 3.4-1.7 7 0.7 2.7 1.9 4.4 5.9 4.4 6 0.3 0.5 0 1.1-0.5 1.3-0.3 0.1-0.6 0.1-0.8 0q-0.3-0.2-0.5-0.6z"/>
								</g>
							</g>
							<g id="&lt;Group&gt;">
								<g id="&lt;Group&gt;">
									<path id="&lt;Path&gt;" class="s4" d="m720 837.3c0 0-1.4-3.6-3.7-5.1-2.5-1.8-4.8-0.6-4.9-0.6-0.5 0.3-1.1 0.1-1.4-0.4-0.2-0.4-0.1-1 0.4-1.3 0.2-0.1 3.5-1.8 7.1 0.7 2.7 1.8 4.3 5.8 4.4 6 0.2 0.5 0 1.1-0.6 1.3-0.2 0.1-0.5 0-0.7-0.1q-0.4-0.1-0.6-0.5z"/>
								</g>
							</g>
						</g>
					</g>
					<g id="&lt;Group&gt;">
						<path id="&lt;Path&gt;" class="s7" d="m792 859.3c0 0 6.9-2.1 8.8-2.1 1.9 0 15.3 13.5 19.6 14.2 7.9 1.2 8.4 13.1 3.6 13.9-13.7 2.3-37.4-2.5-37.4-2.5 0 0-2.8-15.3-2.1-20.1 0.8-4.9 3.7-1.8 7.5-3.4z"/>
						<g id="&lt;Group&gt;">
							<g id="&lt;Group&gt;">
								<g id="&lt;Group&gt;">
									<path id="&lt;Path&gt;" class="s4" d="m803.9 872q-0.3 0.1-0.7-0.1c-0.4-0.3-0.6-0.9-0.3-1.3 0.1-0.2 2.3-3.6 5.1-4.9 3.8-1.7 6.7 0.4 6.8 0.5 0.4 0.3 0.5 0.9 0.1 1.3-0.3 0.4-0.9 0.5-1.3 0.2-0.1-0.1-2.1-1.5-4.8-0.3-2.3 1-4.3 4.1-4.3 4.2q-0.2 0.3-0.6 0.4z"/>
								</g>
							</g>
							<g id="&lt;Group&gt;">
								<g id="&lt;Group&gt;">
									<path id="&lt;Path&gt;" class="s4" d="m801.2 869.3c-0.2 0-0.5 0-0.7-0.1-0.5-0.3-0.6-0.9-0.4-1.3 0.1-0.2 2.3-3.7 5.2-4.9 3.8-1.8 6.6 0.4 6.7 0.5 0.4 0.3 0.5 0.9 0.2 1.3-0.4 0.4-1 0.5-1.4 0.2 0-0.1-2-1.6-4.7-0.3-2.3 1-4.3 4.1-4.3 4.1q-0.2 0.4-0.6 0.5z"/>
								</g>
							</g>
							<g id="&lt;Group&gt;">
								<g id="&lt;Group&gt;">
									<path id="&lt;Path&gt;" class="s4" d="m807.7 874.2q-0.4 0.1-0.7-0.1c-0.5-0.2-0.6-0.8-0.3-1.2 0.1-0.2 2.3-3.7 5.1-5 3.8-1.7 6.6 0.5 6.8 0.6 0.4 0.3 0.4 0.9 0.1 1.3-0.3 0.4-0.9 0.5-1.3 0.1-0.1 0-2.1-1.5-4.8-0.3-2.3 1.1-4.3 4.2-4.3 4.2q-0.2 0.4-0.6 0.4z"/>
								</g>
							</g>
						</g>
					</g>
					<g id="&lt;Group&gt;">
						<path id="&lt;Path&gt;" class="s5" d="m764 510.2c0 0-10.2-17.4-1.6-30.9 8.6-13.5 26.9-12.2 31.7-11.2 4.7 1.1 32 13.9 15.5 44.9z"/>
						<g id="&lt;Group&gt;">
							<g id="&lt;Group&gt;">
								<path id="&lt;Path&gt;" class="s11" d="m767.3 519.1c-7.5 3.3-11.9-10.2-8.8-14.8 3.1-4.5 7.2 1 7.2 1z"/>
							</g>
							<g id="&lt;Group&gt;">
								<g id="&lt;Group&gt;">
									<path id="&lt;Path&gt;" class="s12" d="m765.7 514.9c-0.3 0-0.6-0.2-0.6-0.4-1.2-4.2-5.5-5.9-5.6-5.9-0.3-0.1-0.5-0.5-0.3-0.8 0.1-0.3 0.5-0.5 0.8-0.4 0.2 0.1 4.9 1.9 6.3 6.7 0.1 0.4-0.1 0.7-0.5 0.8q0 0-0.1 0z"/>
								</g>
							</g>
							<g id="&lt;Group&gt;">
								<g id="&lt;Group&gt;">
									<path id="&lt;Path&gt;" class="s12" d="m761.3 512.8q-0.2 0-0.3-0.1c-0.3-0.2-0.4-0.6-0.2-0.8 0-0.1 0.8-1.3 2.4-2 0.3-0.1 0.7 0 0.8 0.3 0.2 0.4 0 0.7-0.3 0.9-1.2 0.5-1.8 1.4-1.8 1.4-0.2 0.2-0.4 0.3-0.6 0.3z"/>
								</g>
							</g>
						</g>
						<g id="&lt;Group&gt;">
							<g id="&lt;Group&gt;">
								<path id="&lt;Path&gt;" class="s11" d="m808.4 505.3c0 0 4.1-5.5 7.2-1 3.1 4.6-1.3 18.1-8.8 14.8z"/>
							</g>
							<g id="&lt;Group&gt;">
								<g id="&lt;Group&gt;">
									<g id="&lt;Group&gt;">
										<path id="&lt;Path&gt;" class="s12" d="m808.2 514.9c-0.3-0.1-0.5-0.4-0.4-0.8 1.4-4.8 6.1-6.6 6.3-6.7 0.3-0.1 0.7 0.1 0.8 0.4 0.1 0.3 0 0.7-0.3 0.8-0.1 0-4.4 1.7-5.6 5.9 0 0.2-0.3 0.4-0.6 0.4q-0.1 0-0.2 0z"/>
									</g>
								</g>
							</g>
							<g id="&lt;Group&gt;">
								<g id="&lt;Group&gt;">
									<g id="&lt;Group&gt;">
										<path id="&lt;Path&gt;" class="s12" d="m812.2 512.5c0 0-0.6-0.9-1.8-1.4-0.3-0.2-0.5-0.5-0.3-0.9 0.1-0.3 0.5-0.4 0.8-0.3 1.6 0.7 2.4 1.9 2.4 2 0.2 0.2 0.1 0.6-0.2 0.8q-0.1 0.1-0.3 0.1c-0.2 0-0.4-0.1-0.6-0.3z"/>
									</g>
								</g>
							</g>
						</g>
						<g id="&lt;Group&gt;">
							<path id="&lt;Path&gt;" class="s8" d="m797.2 530.5v13.4c0 0-4 6.8-9.4 7.3-5.4 0.5-10.2-5.9-10.2-5.9v-13.8z"/>
						</g>
						<g id="&lt;Group&gt;">
							<path id="&lt;Path&gt;" class="s11" d="m797.2 530.5v6c-3.6 4-10 5-19.6 3.6v-8.6z"/>
						</g>
						<g id="&lt;Group&gt;">
							<path id="&lt;Path&gt;" class="s8" d="m811.4 496.1c-0.3 5.2-0.8 11.7-1.8 16.9q-0.4 2-0.8 3.6c-2.8 9.9-9.9 26.9-29.6 19.8-8.8-3.1-12.8-12.8-14.6-22.7-1.2-6.7-1.4-13.5-1.3-18.3 0.1-5 2.8-9.5 7.1-11.9 11.6-6.6 23.9-4.2 32-1.1 5.6 2.2 9.2 7.7 9 13.7z"/>
						</g>
						<path id="&lt;Path&gt;" class="s5" d="m781.7 477c0 0 26.1 41.8 29.7 26.5 5.1-21.7-10.5-35.2-29.7-26.5z"/>
						<path id="&lt;Path&gt;" class="s5" d="m786.6 481.1c-3 5.5-12.7 21.3-23.9 18.1-8-2.3 0.6-22 17.9-22.2 2 1.5 4 2.8 6 4.1z"/>
						<path id="&lt;Path&gt;" class="s5" d="m812.2 467.7c0 9.4-7.6 17.1-17.1 17.1-9.5 0-17.2-7.7-17.2-17.1 0-9.5 7.7-17.2 17.2-17.2 9.5 0 17.1 7.7 17.1 17.2z"/>
						<path id="&lt;Path&gt;" class="s5" d="m766.3 497.3c0 0 1.4 5.3-0.5 8.8-1.8 3.5-0.8 9.5 0 16.3 0 0-2.9-4.1-3.1-10.7-0.1-6.7 0.9-12.2 0-14.8z"/>
						<path id="&lt;Path&gt;" class="s5" d="m810.8 496.9c-0.9 2.6 0.2 8.1 0 14.8-0.1 6.6-3.1 10.7-3.1 10.7 0.9-6.8 1.9-12.8 0-16.3-1.8-3.5-0.4-8.8-0.4-8.8z"/>
						<path id="&lt;Path&gt;" class="s5" d="m778.4 507.4c0 1.4-0.8 2.6-1.7 2.6-0.9 0-1.6-1.2-1.6-2.6 0-1.5 0.7-2.6 1.6-2.6 0.9 0 1.7 1.1 1.7 2.6z"/>
						<path id="&lt;Path&gt;" class="s5" d="m798.7 507.4c0 1.4-0.8 2.6-1.7 2.6-0.9 0-1.6-1.2-1.6-2.6 0-1.5 0.7-2.6 1.6-2.6 0.9 0 1.7 1.1 1.7 2.6z"/>
						<path id="&lt;Path&gt;" class="s5" d="m773.4 498.4c1.4-0.4 4.2-1.1 7.1-1.1 0.8 0 1.3 0.7 1.2 1.5-0.1 0.6-0.6 1-1.3 1-1.9-0.1-7.1 0.2-9.6 1.2 0-0.5 0.2-0.9 0.6-1.4 0.5-0.6 1.2-1 2-1.2z"/>
						<path id="&lt;Path&gt;" class="s5" d="m802.1 499.7c0.4 0.4 0.6 0.9 0.6 1.3-2.5-1-7.7-1.3-9.7-1.2-0.6 0.1-1.1-0.4-1.2-1-0.1-0.7 0.4-1.4 1.2-1.4 2.9 0 5.7 0.6 7 1 0.8 0.3 1.6 0.7 2.1 1.3z"/>
						<g id="&lt;Group&gt;">
							<g id="&lt;Group&gt;">
								<g id="&lt;Group&gt;">
									<path id="&lt;Path&gt;" class="s11" d="m787.3 517.9c-0.5 0-1-0.1-1.4-0.3-0.4-0.3-0.8-0.7-0.9-1.6-0.3-2.3 0.3-9.7 0.3-10 0.1-0.3 0.4-0.6 0.7-0.5 0.4 0 0.6 0.3 0.6 0.6 0 0.1-0.6 7.6-0.4 9.8 0.1 0.4 0.2 0.5 0.3 0.6 0.6 0.3 2 0 2.6-0.3 0.3-0.1 0.7 0.1 0.8 0.4 0.2 0.3 0 0.7-0.3 0.8-0.2 0.1-1.3 0.5-2.3 0.5z"/>
								</g>
							</g>
						</g>
						<path id="&lt;Path&gt;" class="s16" d="m794.1 521.9c-0.5 2.8-2 6.9-7.4 6.9-5.4 0-7-4.5-7.5-6.9z"/>
						<g id="&lt;Group&gt;">
							<g id="&lt;Group&gt;">
								<path id="&lt;Path&gt;" class="s11" d="m786.6 532.5c-1.6 0-2.9-0.8-3-0.9-0.3-0.1-0.4-0.5-0.2-0.8 0.2-0.3 0.6-0.4 0.9-0.2 0 0 1.1 0.6 2.3 0.6 1.3 0 2.4-0.6 2.4-0.6 0.3-0.2 0.7-0.1 0.9 0.2 0.2 0.3 0.1 0.7-0.2 0.8-0.1 0.1-1.5 0.9-3.1 0.9z"/>
							</g>
						</g>
					</g>
				</g>
			</g>
		</g>
	</g>
	<g id="DESIGNED BY FREEPIK">
		<g id="&lt;Group&gt;">
			<g id="&lt;Group&gt;">
				<g id="&lt;Group&gt;">
				</g>
			</g>
			<g id="&lt;Group&gt;">
			</g>
		</g>
	</g>
</svg>